<svg width="38" height="40" viewBox="0 0 38 40" fill="none" xmlns="http://www.w3.org/2000/svg">
<path d="M37.0684 0.185564C37.4451 0.410505 37.6712 0.810399 37.6712 1.26028V38.7503C37.6712 39.4501 37.1187 40 36.4155 40H28.8812C28.178 40 27.6255 39.4501 27.6255 38.7503V35.0013H25.1141V38.7503C25.1141 39.4501 24.5616 40 23.8584 40H1.25571C0.55251 40 0 39.4501 0 38.7503V25.004C0 24.4541 0.351598 23.9793 0.85388 23.8293L15.0685 19.1055V11.2576C15.0685 10.7828 15.3447 10.3579 15.7717 10.1329L35.8629 0.135578C36.2648 -0.0643692 36.7168 -0.0393759 37.0935 0.185564H37.0684ZM15.0685 20.0303L1.15525 24.6541V38.9753H15.0685V20.0303ZM16.2237 38.8503H36.4657V1.23529L16.2237 11.2326V38.8753V38.8503Z" fill="#010101"/>
<path d="M4.34474 27.5033H6.85615V30.0026H4.34474V27.5033Z" fill="#010101"/>
<path d="M9.36755 27.5033H11.879V30.0026H9.36755V27.5033Z" fill="#010101"/>
<path d="M4.34474 32.502H6.85615V35.0013H4.34474V32.502Z" fill="#010101"/>
<path d="M9.36755 32.502H11.879V35.0013H9.36755V32.502Z" fill="#010101"/>
<path d="M20.0913 25.004H22.6027V27.5033H20.0913V25.004Z" fill="#010101"/>
<path d="M25.1141 25.004H27.6255V27.5033H25.1141V25.004Z" fill="#010101"/>
<path d="M20.0913 30.0026H22.6027V32.502H20.0913V30.0026Z" fill="#010101"/>
<path d="M25.1141 30.0026H27.6255V32.502H25.1141V30.0026Z" fill="#010101"/>
<path d="M30.1369 25.004H32.6483V27.5033H30.1369V25.004Z" fill="#010101"/>
<path d="M30.1369 30.0026H32.6483V32.502H30.1369V30.0026Z" fill="#010101"/>
<path d="M20.0913 20.0053H22.6027V22.5046H20.0913V20.0053Z" fill="#010101"/>
<path d="M25.1141 20.0053H27.6255V22.5046H25.1141V20.0053Z" fill="#010101"/>
<path d="M30.1369 20.0053H32.6483V22.5046H30.1369V20.0053Z" fill="#010101"/>
<path d="M20.0913 15.0066H22.6027V17.506H20.0913V15.0066Z" fill="#010101"/>
<path d="M25.1141 15.0066H27.6255V17.506H25.1141V15.0066Z" fill="#010101"/>
<path d="M30.1369 15.0066H32.6483V17.506H30.1369V15.0066Z" fill="#010101"/>
<path d="M30.1369 10.0079H32.6483V12.5073H30.1369V10.0079Z" fill="#010101"/>
</svg>
