<svg width="37" height="40" viewBox="0 0 37 40" fill="none" xmlns="http://www.w3.org/2000/svg">
<path d="M17.8471 5.68365C10.7479 5.68365 4.97851 11.4531 4.97851 18.5523C4.97851 22.1769 6.47985 25.4584 8.90344 27.7962C9.3324 28.2252 9.67556 28.6542 9.86859 29.126L11.4986 32.9223C11.6702 33.3083 12.0563 33.5657 12.4852 33.5657C11.8847 33.5657 11.4128 34.0375 11.4128 34.6381C11.4128 35.2386 11.8847 35.7105 12.4852 35.7105C11.8847 35.7105 11.4128 36.1823 11.4128 36.7828C11.4128 37.3834 11.8847 37.8552 12.4852 37.8552L12.9571 38.8204C13.3217 39.5496 14.0723 40 14.8659 40H20.7855C21.6005 40 22.3512 39.5496 22.6943 38.8204L23.1662 37.8552C23.7667 37.8552 24.2386 37.3834 24.2386 36.7828C24.2386 36.1823 23.7667 35.7105 23.1662 35.7105C23.7667 35.7105 24.2386 35.2386 24.2386 34.6381C24.2386 34.0375 23.7667 33.5657 23.1662 33.5657C23.5951 33.5657 23.9812 33.3083 24.1528 32.9223L25.7828 29.126C25.9758 28.6542 26.319 28.2252 26.7479 27.7962C29.1715 25.4584 30.6729 22.1769 30.6729 18.5523C30.6729 11.4531 24.9034 5.68365 17.8042 5.68365H17.8471ZM25.9758 27.0027C25.3538 27.6032 24.7748 28.3324 24.3887 29.2118L22.9088 32.6434H12.7426L11.2627 29.2118C10.8766 28.3324 10.2975 27.6032 9.67556 27.0027C7.48789 24.8794 6.11524 21.8981 6.11524 18.5952C6.11524 12.1394 11.3485 6.90617 17.8042 6.90617C24.26 6.90617 29.4933 12.1394 29.4933 18.5952C29.4933 21.8981 28.1206 24.8794 25.9329 27.0027H25.9758Z" fill="#010101"/>
<path d="M4.59245 13.4263C4.59245 13.4263 4.48521 13.4263 4.42087 13.4048L0.367249 12.0322C0.0884289 11.9464 -0.0617052 11.6247 0.0240857 11.3458C0.109877 11.067 0.431592 10.9169 0.710413 11.0027L4.76403 12.3753C5.04285 12.4611 5.19299 12.7828 5.1072 13.0617C5.02141 13.2761 4.82838 13.4263 4.59245 13.4263Z" fill="#231F20"/>
<path d="M31.1018 13.4263C30.8659 13.4263 30.6729 13.2761 30.5871 13.0617C30.5013 12.7828 30.6514 12.4826 30.9303 12.3968L35.5415 10.9383C35.8203 10.8525 36.1206 11.0027 36.2064 11.2815C36.2922 11.5603 36.142 11.8606 35.8632 11.9464L31.252 13.4048C31.252 13.4048 31.1447 13.4263 31.0804 13.4263H31.1018Z" fill="#231F20"/>
<path d="M9.35384 7.74263C9.20371 7.74263 9.03213 7.67828 8.92489 7.5496L6.30827 4.2681C6.11524 4.03217 6.15813 3.71046 6.39406 3.51743C6.62998 3.3244 6.97315 3.36729 7.14473 3.60322L9.76135 6.88472C9.95438 7.12064 9.91148 7.44236 9.67556 7.63539C9.56832 7.72118 9.46108 7.74263 9.3324 7.74263H9.35384Z" fill="#231F20"/>
<path d="M26.9195 7.74263C26.8123 7.74263 26.6836 7.69973 26.5764 7.63539C26.3404 7.44236 26.319 7.12064 26.4906 6.88472L29.1072 3.60322C29.3002 3.36729 29.6434 3.3244 29.8579 3.51743C30.0938 3.71046 30.1152 4.03217 29.9437 4.2681L27.327 7.5496C27.2198 7.67828 27.0697 7.74263 26.8981 7.74263H26.9195Z" fill="#231F20"/>
<path d="M17.8471 4.97587C17.5469 4.97587 17.3109 4.73995 17.3109 4.43968V0.536193C17.3109 0.235925 17.5469 0 17.8471 0C18.1474 0 18.3833 0.235925 18.3833 0.536193V4.43968C18.3833 4.73995 18.1474 4.97587 17.8471 4.97587Z" fill="#231F20"/>
</svg>
