<svg width="20" height="20" viewBox="0 0 20 20" fill="none" xmlns="http://www.w3.org/2000/svg">
<mask id="mask0_34_689" style="mask-type:alpha" maskUnits="userSpaceOnUse" x="0" y="0" width="20" height="20">
<rect width="20" height="20" fill="#D9D9D9"/>
</mask>
<g mask="url(#mask0_34_689)">
<path d="M9.99984 17.8333C8.91223 17.8333 7.89139 17.629 6.93734 17.2203C5.98328 16.8117 5.15396 16.255 4.44936 15.5504C3.74476 14.8458 3.18814 14.0165 2.77948 13.0625C2.37083 12.1084 2.1665 11.0876 2.1665 9.99996C2.1665 8.92303 2.37083 7.90487 2.77948 6.94548C3.18814 5.98608 3.74476 5.15408 4.44936 4.44948C5.15396 3.74488 5.98328 3.18826 6.93734 2.7796C7.89139 2.37095 8.91223 2.16663 9.99984 2.16663C11.0768 2.16663 12.0949 2.37095 13.0543 2.7796C14.0137 3.18826 14.8457 3.74488 15.5503 4.44948C16.2549 5.15408 16.8115 5.98608 17.2202 6.94548C17.6288 7.90487 17.8332 8.92303 17.8332 9.99996C17.8332 11.0876 17.6288 12.1084 17.2202 13.0625C16.8115 14.0165 16.2549 14.8458 15.5503 15.5504C14.8457 16.255 14.0137 16.8117 13.0543 17.2203C12.0949 17.629 11.0768 17.8333 9.99984 17.8333ZM9.99984 16.5897C10.3364 16.2393 10.6425 15.7056 10.9181 14.9888C11.1937 14.2719 11.4101 13.4829 11.5672 12.6218H8.43253C8.61094 13.5256 8.83263 14.336 9.09759 15.0529C9.36255 15.7697 9.6633 16.282 9.99984 16.5897ZM9.00144 16.548C8.682 16.173 8.38952 15.6308 8.12402 14.9214C7.85854 14.212 7.66116 13.4455 7.53188 12.6218H3.89888C4.34867 13.7136 5.04311 14.6087 5.98221 15.3069C6.92131 16.005 7.92772 16.4188 9.00144 16.548ZM10.9982 16.548C12.072 16.4188 13.0784 16.005 14.0175 15.3069C14.9566 14.6087 15.651 13.7136 16.1008 12.6218H12.4678C12.2851 13.4562 12.061 14.2281 11.7955 14.9375C11.53 15.6469 11.2643 16.1837 10.9982 16.548ZM3.62163 11.7468H7.46298C7.42772 11.4465 7.40395 11.1413 7.39167 10.8309C7.37938 10.5205 7.37323 10.2297 7.37323 9.95829C7.37323 9.68693 7.37938 9.40301 7.39167 9.10652C7.40395 8.81005 7.42772 8.5256 7.46298 8.25317H3.62163C3.53082 8.49996 3.46699 8.7796 3.43013 9.0921C3.39327 9.4046 3.37484 9.70722 3.37484 9.99996C3.37484 10.2927 3.39327 10.5953 3.43013 10.9078C3.46699 11.2203 3.53082 11.5 3.62163 11.7468ZM8.37965 11.7468H11.62C11.6692 11.4327 11.6999 11.1327 11.7122 10.8469C11.7245 10.5611 11.7306 10.2788 11.7306 9.99996C11.7306 9.72111 11.7245 9.43532 11.7122 9.14258C11.6999 8.84985 11.6692 8.55338 11.62 8.25317H8.37965C8.3305 8.55338 8.29978 8.84985 8.2875 9.14258C8.27521 9.43532 8.26907 9.72111 8.26907 9.99996C8.26907 10.2788 8.27521 10.5646 8.2875 10.8573C8.29978 11.1501 8.3305 11.4465 8.37965 11.7468ZM12.5367 11.7468H16.378C16.4689 11.5 16.5327 11.2203 16.5695 10.9078C16.6064 10.5953 16.6248 10.2927 16.6248 9.99996C16.6248 9.70722 16.6064 9.40113 16.5695 9.08169C16.5327 8.76224 16.4689 8.48607 16.378 8.25317H12.5367C12.572 8.55338 12.5957 8.85866 12.608 9.16902C12.6203 9.4794 12.6264 9.77026 12.6264 10.0416C12.6264 10.313 12.6203 10.5969 12.608 10.8934C12.5957 11.1899 12.572 11.4743 12.5367 11.7468ZM12.4678 7.37817H16.1008C15.6403 6.26492 14.9539 5.36988 14.0415 4.69306C13.1291 4.01626 12.1147 3.59719 10.9982 3.43585C11.3177 3.86427 11.6048 4.42517 11.8596 5.11854C12.1144 5.81192 12.3172 6.56513 12.4678 7.37817ZM8.43253 7.37817H11.5672C11.3887 6.485 11.159 5.6701 10.878 4.93346C10.5971 4.19681 10.3043 3.65433 9.99984 3.30604C9.69535 3.65433 9.40262 4.19681 9.12163 4.93346C8.84064 5.6701 8.61094 6.485 8.43253 7.37817ZM3.89888 7.37817H7.53188C7.68252 6.56513 7.88525 5.81192 8.14007 5.11854C8.39487 4.42517 8.682 3.86427 9.00144 3.43585C7.8743 3.59719 6.85721 4.01893 5.95015 4.70108C5.04311 5.38324 4.35935 6.2756 3.89888 7.37817Z" fill="#1D1D1D"/>
</g>
</svg>
