<svg width="265" height="83" viewBox="0 0 265 83" fill="none" xmlns="http://www.w3.org/2000/svg">
<path d="M13.6218 53.9933C11.1939 53.1257 10.7339 52.5474 10.7339 51.5522C10.7339 50.5571 11.4324 49.7661 13.0936 49.7661C14.3119 49.7661 15.1212 50.1658 16.0071 50.8973L16.8761 49.8341C15.8538 49.0176 14.8145 48.5413 13.1788 48.5413C10.9128 48.5413 9.37936 49.698 9.37936 51.6373C9.37936 53.3894 10.2653 54.24 12.8892 55.1756C15.1126 55.9751 15.7856 56.613 15.7856 57.7357C15.7856 59.0201 14.7804 59.8196 13.1703 59.8196C11.918 59.8196 10.8617 59.2412 9.94161 58.3651L9.04712 59.3688C10.0012 60.3384 11.475 61.0529 13.1277 61.0529C15.6578 61.0529 17.1487 59.5729 17.1487 57.6762C17.1487 55.7795 16.3223 54.9714 13.6303 54.0018L13.6218 53.9933Z" fill="white"/>
<path d="M22.6519 51.5778C21.4678 51.5778 20.3944 51.867 19.5936 52.3008L20.0877 53.3555C20.8289 52.9217 21.6126 52.658 22.5667 52.658C23.8957 52.658 24.5431 53.3129 24.5431 54.6738V55.7455C24.0064 55.4478 23.1801 55.2182 22.2686 55.2182C20.4711 55.2182 18.7843 56.0857 18.7843 58.1271C18.7843 60.3215 20.2751 61.036 21.6893 61.036C23.0012 61.036 23.8957 60.4236 24.5431 59.7346V60.8488H25.838V54.5037C25.838 52.3943 24.6113 51.5608 22.6519 51.5608V51.5778ZM24.5431 58.6289C23.9894 59.3859 23.1034 59.9898 21.9278 59.9898C20.8118 59.9898 20.0621 59.4029 20.0621 58.0505C20.0621 56.9108 20.8629 56.2644 22.2004 56.2644C23.3079 56.2644 23.9468 56.4685 24.5431 56.7917V58.6374V58.6289Z" fill="white"/>
<path d="M38.9062 55.5328V60.8573H40.2011V55.3202C40.2011 52.6665 39.0425 51.5778 37.1854 51.5778C35.7031 51.5778 34.9619 52.2667 34.4252 53.1343C33.9907 52.2667 33.2155 51.5778 31.9292 51.5778C30.8558 51.5778 30.0891 52.0966 29.6205 52.8791V51.7734H28.3086V60.8658H29.6205V55.5413C29.6205 53.5255 30.3957 52.7005 31.648 52.7005C32.9003 52.7005 33.6074 53.4575 33.6074 55.5413V60.8658H34.9108V55.5413C34.9108 53.5255 35.7031 52.7005 36.9383 52.7005C38.2503 52.7005 38.8977 53.4575 38.8977 55.5413L38.9062 55.5328Z" fill="white"/>
<path d="M45.4231 55.5668C43.8812 54.8694 43.4212 54.5717 43.4212 53.7977C43.4212 53.1342 43.9664 52.6749 44.929 52.6749C45.8916 52.6749 46.488 52.9301 47.1951 53.4915L47.9192 52.5303C47.2291 51.9605 46.258 51.5692 45.0142 51.5692C43.353 51.5692 42.1689 52.5048 42.1689 53.8827C42.1689 55.3372 42.927 55.89 44.7586 56.6725C46.3687 57.3615 46.9054 57.7782 46.9054 58.5267C46.9054 59.4113 46.3176 59.9301 45.0653 59.9301C44.1623 59.9301 43.3104 59.5644 42.5863 58.9265L41.8196 59.8706C42.6885 60.5681 43.7789 61.0359 45.0312 61.0359C46.6073 61.0359 48.1492 60.2619 48.1492 58.4672C48.1492 56.8426 47.1439 56.3408 45.4146 55.5583L45.4231 55.5668Z" fill="white"/>
<path d="M55.7482 57.0808C55.7482 59.0711 54.7514 59.9132 53.4991 59.9132C52.0339 59.9132 51.3438 59.0371 51.3438 57.0808V51.7649H50.049V57.302C50.049 59.9132 51.3183 61.0444 53.235 61.0444C54.3851 61.0444 55.2285 60.5086 55.7482 59.7431V60.8573H57.0516V51.7649H55.7482V57.0808Z" fill="white"/>
<path d="M66.2521 60.8573V55.3202C66.2521 52.7005 64.9828 51.5778 63.0575 51.5778C61.9159 51.5778 61.064 52.1136 60.5529 52.8791V51.7734H59.241V60.8658H60.5529V55.5413C60.5529 53.551 61.5326 52.7005 62.7934 52.7005C64.2501 52.7005 64.9487 53.5851 64.9487 55.5413V60.8658H66.2521V60.8573Z" fill="white"/>
<path d="M70.3497 63.2048L70.7672 64.1914C74.1492 64.0894 75.3759 62.771 75.3759 60.0322V51.7563H74.0725V52.777C73.4336 52.0455 72.6499 51.5692 71.5083 51.5692C69.6001 51.5692 68.0667 53.2278 68.0667 56.4514C68.0667 59.675 69.5149 61.0359 71.3294 61.0359C72.5647 61.0359 73.4336 60.4235 74.0725 59.7345V60.2023C74.0725 62.3202 73.3825 63.1197 70.3412 63.1963L70.3497 63.2048ZM71.6617 59.9131C70.222 59.9131 69.353 58.7224 69.353 56.4344C69.353 53.9933 70.0942 52.6919 71.6105 52.6919C72.6925 52.6919 73.5699 53.2958 74.0725 54.0528V58.6033C73.4336 59.4028 72.6328 59.9131 71.6617 59.9131Z" fill="white"/>
<path d="M89.7389 54.7077C89.7389 50.5485 87.3876 48.7283 84.2015 48.7283H80.9899V60.8571H83.963C87.2087 60.8571 89.7389 59.105 89.7389 54.7077ZM82.3444 49.9531H84.0993C86.8935 49.9531 88.3844 51.6542 88.3844 54.7502C88.3844 58.2374 86.7487 59.6238 84.1334 59.6238H82.3444V49.9531Z" fill="white"/>
<path d="M93.2062 52.8875V51.7648H91.9028V60.8572H93.2062V55.5157C93.2062 53.7806 93.9218 52.7684 95.1912 52.7684C95.796 52.7684 96.1879 52.9045 96.5542 53.1172L96.8779 51.8073C96.5712 51.6712 96.1368 51.5862 95.4553 51.5862C94.4756 51.5862 93.6151 52.1731 93.2062 52.896V52.8875Z" fill="white"/>
<path d="M104.664 59.9896L104.051 59.054C103.216 59.6069 102.594 59.9216 101.529 59.9216C100.047 59.9216 99.1182 58.6883 98.999 56.7575H105.064C105.107 56.5449 105.124 56.3578 105.124 56.0516C105.124 53.4574 103.829 51.5862 101.452 51.5862C99.2886 51.5862 97.6956 53.3808 97.6956 56.2642C97.6956 59.845 99.7231 61.0528 101.393 61.0528C102.764 61.0528 103.565 60.6871 104.664 59.9981V59.9896ZM101.452 52.7004C103.045 52.7004 103.812 53.9337 103.914 55.6943H98.999C99.1523 53.6615 100.098 52.7004 101.452 52.7004Z" fill="white"/>
<path d="M109.469 61.0444C110.772 61.0444 111.667 60.432 112.306 59.743V60.8572H113.609V54.5121C113.609 52.4028 112.382 51.5692 110.423 51.5692C109.239 51.5692 108.165 51.8584 107.365 52.2922L107.85 53.3469C108.6 52.9131 109.375 52.6494 110.329 52.6494C111.667 52.6494 112.306 53.3043 112.306 54.6652V55.7369C111.769 55.4392 110.951 55.2096 110.04 55.2096C108.234 55.2096 106.538 56.0771 106.538 58.1185C106.538 60.3129 108.038 61.0274 109.46 61.0274L109.469 61.0444ZM109.971 56.2558C111.079 56.2558 111.726 56.4599 112.314 56.7831V58.6288C111.76 59.3858 110.874 59.9897 109.699 59.9897C108.591 59.9897 107.833 59.4028 107.833 58.0504C107.833 56.9107 108.643 56.2643 109.971 56.2643V56.2558Z" fill="white"/>
<path d="M126.677 55.5328V60.8573H127.981V55.3202C127.981 52.6665 126.822 51.5778 124.965 51.5778C123.491 51.5778 122.742 52.2667 122.213 53.1343C121.779 52.2667 121.004 51.5778 119.717 51.5778C118.635 51.5778 117.877 52.0966 117.409 52.8791V51.7734H116.114V60.8658H117.409V55.5413C117.409 53.5255 118.192 52.7005 119.445 52.7005C120.697 52.7005 121.413 53.4575 121.413 55.5413V60.8658H122.707V55.5413C122.707 53.5255 123.5 52.7005 124.743 52.7005C126.055 52.7005 126.703 53.4575 126.703 55.5413L126.677 55.5328Z" fill="white"/>
<path d="M13.6218 72.0334C11.1854 71.1658 10.7424 70.5959 10.7424 69.5923C10.7424 68.5886 11.441 67.8146 13.1022 67.8146C14.3204 67.8146 15.1382 68.2059 16.0156 68.9374L16.8846 67.8827C15.8623 67.0747 14.8145 66.5898 13.1873 66.5898C10.9128 66.5898 9.38788 67.7296 9.38788 69.6859C9.38788 71.438 10.2739 72.28 12.8977 73.2157C15.1212 74.0237 15.7942 74.6531 15.7942 75.7843C15.7942 77.0601 14.7889 77.8597 13.1703 77.8597C11.918 77.8597 10.8617 77.2813 9.94161 76.4052L9.04712 77.4089C10.0012 78.3785 11.475 79.0845 13.1277 79.0845C15.6578 79.0845 17.1402 77.613 17.1402 75.7078C17.1402 73.8025 16.3138 73.003 13.6303 72.0334H13.6218Z" fill="white"/>
<path d="M22.669 70.7406C23.589 70.7406 24.1939 71.0638 24.8498 71.6592L25.6336 70.6896C24.918 70.0602 23.9724 69.6094 22.7542 69.6094C20.8459 69.6094 18.8269 71.0298 18.8269 74.3895C18.8269 77.562 20.6585 79.076 22.6604 79.076C23.9383 79.076 24.8243 78.5912 25.591 77.8087L24.8072 76.9837C24.1853 77.5876 23.5975 77.9448 22.7116 77.9448C21.1015 77.9448 20.1388 76.5074 20.1388 74.2704C20.1388 72.0335 21.2378 70.7236 22.6604 70.7236L22.669 70.7406Z" fill="white"/>
<path d="M31.1965 69.6178C30.055 69.6178 29.1945 70.1537 28.6749 70.9192V66.6494H27.38V78.9144H28.6749V73.5899C28.6749 71.5996 29.6716 70.7491 30.9324 70.7491C32.3977 70.7491 33.0877 71.6251 33.0877 73.5899V78.9144H34.3911V73.3603C34.3911 70.7491 33.1218 69.6178 31.1965 69.6178Z" fill="white"/>
<path d="M40.201 69.6179C37.9861 69.6179 36.2227 71.2765 36.2227 74.364C36.2227 77.4515 37.9179 79.0931 40.1329 79.0931C42.3478 79.0931 44.1283 77.3835 44.1283 74.296C44.1283 71.2085 42.416 69.6179 40.201 69.6179ZM40.1755 77.9618C38.5909 77.9618 37.5261 76.72 37.5261 74.33C37.5261 71.9399 38.5909 70.7492 40.1755 70.7492C41.76 70.7492 42.8249 71.9399 42.8249 74.33C42.8249 76.72 41.7515 77.9618 40.1755 77.9618Z" fill="white"/>
<path d="M47.391 66.641H46.0876V78.906H47.391V66.641Z" fill="white"/>
<path d="M53.3458 69.6179C52.1617 69.6179 51.0883 69.9156 50.296 70.3494L50.7816 71.4126C51.5313 70.9788 52.315 70.7151 53.2691 70.7151C54.5981 70.7151 55.2455 71.3786 55.2455 72.7224V73.8026C54.7088 73.5049 53.891 73.2753 52.9795 73.2753C51.1735 73.2753 49.4867 74.1429 49.4867 76.1927C49.4867 78.3871 50.9775 79.0931 52.4002 79.0931C53.7036 79.0931 54.5981 78.4892 55.2455 77.8002V78.9145H56.5489V72.5778C56.5489 70.4515 55.3137 69.6264 53.3543 69.6264L53.3458 69.6179ZM55.237 76.669C54.6918 77.4175 53.7888 78.0299 52.6217 78.0299C51.5142 78.0299 50.7645 77.443 50.7645 76.0906C50.7645 74.9424 51.5653 74.313 52.9028 74.313C54.0103 74.313 54.6492 74.5001 55.237 74.8318V76.669Z" fill="white"/>
<path d="M60.3229 70.9362V69.7965H59.0195V78.8974H60.3229V73.5559C60.3229 71.8293 61.0215 70.8001 62.2993 70.8001C62.9127 70.8001 63.3046 70.9362 63.6709 71.1488L64.0031 69.8305C63.6879 69.6944 63.262 69.6008 62.5805 69.6008C61.6093 69.6008 60.7318 70.1877 60.3314 70.9277L60.3229 70.9362Z" fill="white"/>
<path d="M68.9952 73.6155C67.4533 72.9181 66.9847 72.6034 66.9847 71.8464C66.9847 71.1914 67.5385 70.7236 68.4926 70.7236C69.4467 70.7236 70.0601 70.9873 70.7672 71.5402L71.4913 70.5875C70.7927 70.0177 69.8301 69.6179 68.5778 69.6179C66.9251 69.6179 65.7239 70.5535 65.7239 71.9399C65.7239 73.3263 66.4906 73.9472 68.3137 74.7212C69.9238 75.4102 70.4605 75.8355 70.4605 76.5754C70.4605 77.4685 69.8727 77.9789 68.6289 77.9789C67.7174 77.9789 66.874 77.6131 66.1414 76.9752L65.3832 77.9278C66.2521 78.6253 67.3425 79.0846 68.5948 79.0846C70.1708 79.0846 71.7128 78.3021 71.7128 76.5244C71.7128 74.8913 70.7075 74.398 68.9867 73.6155H68.9952Z" fill="white"/>
<path d="M77.659 69.6178C76.5004 69.6178 75.657 70.1537 75.1374 70.9192V66.6494H73.834V78.9144H75.1374V73.5899C75.1374 71.5996 76.1256 70.7491 77.3949 70.7491C78.8517 70.7491 79.5417 71.6251 79.5417 73.5899V78.9144H80.8451V73.3603C80.8451 70.7491 79.5843 69.6178 77.659 69.6178Z" fill="white"/>
<path d="M84.7127 69.7966H83.4178V78.8975H84.7127V69.7966Z" fill="white"/>
<path d="M84.0909 66.3263C83.5627 66.3263 83.1453 66.7431 83.1453 67.2704C83.1453 67.7978 83.5627 68.189 84.0909 68.189C84.5765 68.189 84.9939 67.7637 84.9939 67.2704C84.9939 66.7431 84.5765 66.3263 84.0909 66.3263Z" fill="white"/>
<path d="M91.3831 69.6179C90.1563 69.6179 89.2874 70.2303 88.64 70.9193V69.805H87.3365V82.2486H88.64V77.8853C89.2789 78.6083 90.0626 79.0931 91.2127 79.0931C93.1124 79.0931 94.6458 77.426 94.6458 74.2109C94.6458 70.9958 93.1976 69.6179 91.3831 69.6179ZM91.1019 77.9618C90.0286 77.9618 89.1426 77.3579 88.64 76.5924V72.0505C89.2789 71.2595 90.0797 70.7406 91.0508 70.7406C92.4991 70.7406 93.368 71.9314 93.368 74.2194C93.368 76.6605 92.6183 77.9533 91.1105 77.9533L91.1019 77.9618Z" fill="white"/>
<path d="M101.538 68.0019H107.314V66.7771H100.183V78.906H101.538V73.2498H104.869V72.025H101.538V68.0019Z" fill="white"/>
<path d="M111.266 69.6179C109.051 69.6179 107.28 71.2765 107.28 74.364C107.28 77.4515 108.983 79.0931 111.198 79.0931C113.413 79.0931 115.194 77.3835 115.194 74.296C115.194 71.2085 113.498 69.6179 111.266 69.6179ZM111.232 77.9618C109.648 77.9618 108.6 76.72 108.6 74.33C108.6 71.9399 109.656 70.7492 111.232 70.7492C112.808 70.7492 113.89 71.9399 113.89 74.33C113.89 76.72 112.817 77.9618 111.232 77.9618Z" fill="white"/>
<path d="M122.375 75.1211C122.375 77.1114 121.396 77.9619 120.126 77.9619C118.669 77.9619 117.971 77.0859 117.971 75.1211V69.7966H116.676V75.3422C116.676 77.9534 117.945 79.0847 119.871 79.0847C121.004 79.0847 121.856 78.5573 122.375 77.7918V78.906H123.687V69.8051H122.375V75.1296V75.1211Z" fill="white"/>
<path d="M129.684 69.6179C128.543 69.6179 127.691 70.1537 127.171 70.9192V69.805H125.868V78.9059H127.171V73.5815C127.171 71.5912 128.16 70.7406 129.429 70.7406C130.886 70.7406 131.576 71.6167 131.576 73.5815V78.9059H132.879V73.3518C132.879 70.7406 131.61 69.6094 129.684 69.6094V69.6179Z" fill="white"/>
<path d="M140.708 70.8342C140.061 70.1027 139.285 69.6094 138.135 69.6094C136.227 69.6094 134.702 71.268 134.702 74.5001C134.702 77.7322 136.142 79.0846 137.965 79.0846C139.2 79.0846 140.061 78.4807 140.699 77.7917V78.906H142.003V66.641H140.699V70.8342H140.708ZM140.708 76.6435C140.061 77.4345 139.268 77.9533 138.297 77.9533C136.857 77.9533 135.988 76.7626 135.988 74.4746C135.988 72.025 136.73 70.7321 138.246 70.7321C139.319 70.7321 140.197 71.336 140.708 72.1015V76.635V76.6435Z" fill="white"/>
<path d="M147.523 69.6179C146.347 69.6179 145.274 69.9156 144.473 70.3494L144.95 71.4126C145.7 70.9788 146.484 70.7151 147.438 70.7151C148.767 70.7151 149.406 71.3786 149.406 72.7224V73.8026C148.869 73.5049 148.051 73.2753 147.131 73.2753C145.334 73.2753 143.647 74.1429 143.647 76.1927C143.647 78.3871 145.146 79.0931 146.569 79.0931C147.872 79.0931 148.767 78.4892 149.406 77.8002V78.9145H150.709V72.5778C150.709 70.4515 149.482 69.6264 147.515 69.6264L147.523 69.6179ZM149.406 76.669C148.852 77.4175 147.975 78.0299 146.782 78.0299C145.683 78.0299 144.942 77.443 144.942 76.0906C144.942 74.9424 145.734 74.313 147.072 74.313C148.179 74.313 148.826 74.5001 149.406 74.8318V76.669Z" fill="white"/>
<path d="M154.867 66.641H153.555V69.7965H152.43V70.8938H153.555V77.0262C153.555 78.5317 154.168 79.0761 155.301 79.0761C155.983 79.0761 156.468 78.974 156.971 78.7699L157.065 77.6471C156.647 77.8173 156.306 77.9023 155.778 77.9023C155.088 77.9023 154.867 77.6216 154.867 76.8136V70.8938H157.124V69.7965H154.867V66.641Z" fill="white"/>
<path d="M160.08 66.3263C159.543 66.3263 159.117 66.7431 159.117 67.2704C159.117 67.7978 159.543 68.189 160.08 68.189C160.566 68.189 160.975 67.7637 160.975 67.2704C160.975 66.7431 160.557 66.3263 160.08 66.3263Z" fill="white"/>
<path d="M160.702 69.7966H159.399V78.8975H160.702V69.7966Z" fill="white"/>
<path d="M166.648 69.6179C164.433 69.6179 162.661 71.2765 162.661 74.364C162.661 77.4515 164.357 79.0931 166.58 79.0931C168.804 79.0931 170.567 77.3835 170.567 74.296C170.567 71.2085 168.863 69.6179 166.648 69.6179ZM166.614 77.9618C165.038 77.9618 163.973 76.72 163.973 74.33C163.973 71.9399 165.038 70.7492 166.614 70.7492C168.19 70.7492 169.272 71.9399 169.272 74.33C169.272 76.72 168.199 77.9618 166.614 77.9618Z" fill="white"/>
<path d="M176.266 69.6179C175.125 69.6179 174.273 70.1537 173.745 70.9192V69.805H172.441V78.9059H173.745V73.5815C173.745 71.5912 174.733 70.7406 176.002 70.7406C177.459 70.7406 178.157 71.6167 178.157 73.5815V78.9059H179.452V73.3518C179.452 70.7406 178.183 69.6094 176.266 69.6094V69.6179Z" fill="white"/>
<path d="M59.1643 24.8531C53.9337 24.8617 49.623 28.9443 49.623 34.0646C49.623 39.185 53.9337 43.2251 59.1643 43.2421C64.4461 43.2251 68.7141 39.1339 68.7141 34.0646C68.7141 28.9953 64.4461 24.8617 59.1643 24.8531ZM59.0365 39.0404C56.3019 39.0404 54.2403 36.8119 54.2403 34.0646C54.2403 31.3173 56.4467 29.0464 59.1728 29.0464C61.8989 29.0464 64.0286 31.2748 64.0286 34.0646C64.0286 36.8544 61.7967 39.0404 59.045 39.0404H59.0365Z" fill="white"/>
<path d="M15.3853 18.5165C16.842 19.954 18.5117 21.2128 20.1559 22.0208L20.3263 22.1144L23.1461 18.7887L22.8735 18.6356C20.1985 17.1897 18.1028 15.361 16.7313 13.056C15.3683 10.785 14.6697 8.14831 14.6697 4.99276V2.03284H9.62645V4.67806C9.62645 8.09728 8.85122 10.785 7.39448 13.1411C5.76735 15.7522 3.35648 17.8531 0.272607 19.8009L0 19.971L3.05832 23.135L3.2287 23.0415C5.05176 22.0548 6.98557 20.5324 8.66381 18.8312C10.1206 17.3428 11.3814 15.7522 12.1481 14.2468C12.8892 15.7267 14.0223 17.2322 15.3853 18.5251V18.5165Z" fill="white"/>
<path d="M9.92456 41.0648H31.0346V26.6649H9.92456V41.0648ZM14.6696 30.7306H26.2895V36.9991H14.6696V30.7306Z" fill="white"/>
<path d="M80.3085 41.0648H104.179V26.6649H80.3085V41.0648ZM85.0024 30.7306H99.4932V36.9991H85.0024V30.7306Z" fill="white"/>
<path d="M31.1199 1.18225H26.4259V25.0147H31.1199V14.4679H36.6146V10.2321H31.1199V1.18225Z" fill="white"/>
<path d="M128.441 19.7329C129.983 21.0683 131.746 22.191 133.407 22.914L133.578 22.9905L136.116 19.5628L135.844 19.4267C133.424 18.1934 131.269 16.6624 129.719 14.7912C128.143 12.886 127.205 10.5895 127.205 7.82517V7.01714H134.191V2.91748H115.228V7.01714H122.205V8.00379C122.205 10.5214 121.37 12.8689 119.981 14.9018C118.354 17.3429 115.977 19.3076 113.669 20.5835L113.362 20.7451L116.48 23.9687L116.65 23.8836C118.329 22.931 120.186 21.4935 121.77 19.8775C123.04 18.5506 124.181 17.1472 124.88 15.7438C125.723 17.1047 127.018 18.4656 128.449 19.7329H128.441Z" fill="white"/>
<path d="M162.389 30.8241H179.452V41.0562H184.189V26.7584H162.389V30.8241Z" fill="white"/>
<path d="M174.162 14.4339C174.162 12.1799 173.148 10.1046 171.649 8.52254H176.334V4.4654H167.389V0H162.304V4.4654H153.146V8.52254H157.933C156.468 10.1046 155.454 12.1629 155.454 14.4339C155.454 19.4606 159.603 23.5433 164.791 23.5603C169.979 23.5433 174.154 19.4606 174.162 14.4339ZM159.978 14.2468C159.978 11.4655 162.329 9.10942 164.791 9.10942C167.253 9.10942 169.596 11.474 169.604 14.2468C169.604 16.9855 167.253 19.3501 164.791 19.3586C162.321 19.3501 159.986 16.9855 159.978 14.2468Z" fill="white"/>
<path d="M184.189 1.18225H179.503V25.0998H184.189V15.9734H189.701V11.7376H184.189V1.18225Z" fill="white"/>
<path d="M144.431 1.18225H139.745V25.0998H144.431V14.4679H149.934V10.2321H144.431V1.18225Z" fill="white"/>
<path d="M64.8976 8.27586H57.5201V12.4691H64.8976V25.8568H69.5916V1.18225H64.8976V8.27586Z" fill="white"/>
<path d="M52.9796 19.1375C54.4448 20.5664 56.1571 21.8252 57.7928 22.6757L57.9717 22.7778L60.7915 19.4522L60.5188 19.2991C57.8439 17.8956 55.7908 16.0755 54.4107 13.8045C53.0136 11.5505 52.3151 8.81174 52.3151 5.65619V2.03284H47.2633V5.34999C47.2633 8.76921 46.4966 11.4485 45.0739 13.762C43.4553 16.4157 40.9933 18.5336 37.9095 20.4643L37.6454 20.6344L40.7207 23.807L40.8741 23.7049C42.6886 22.7098 44.5798 21.2723 46.2581 19.6308C47.7745 18.1253 49.0353 16.4837 49.802 14.9102C50.5261 16.3476 51.6336 17.8106 52.9796 19.146V19.1375Z" fill="white"/>
<path d="M134.37 24.8531C129.139 24.8617 124.829 28.9443 124.82 34.0646C124.829 39.1339 129.131 43.2251 134.37 43.2421C139.643 43.2251 143.92 39.1339 143.92 34.0646C143.92 28.9953 139.643 24.8617 134.37 24.8531ZM134.234 39.0404C131.507 39.0404 129.429 36.8119 129.429 34.0646C129.429 31.3173 131.627 29.0464 134.37 29.0464C137.113 29.0464 139.217 31.2748 139.226 34.0646C139.226 36.8034 136.985 39.0404 134.234 39.0404Z" fill="white"/>
<path d="M86.0247 14.8507H90.7186V2.67932H78.0509V6.72795H86.0247V14.8507Z" fill="white"/>
<path d="M100.115 14.8507H104.818V2.67932H92.1499V6.72795H100.115V14.8507Z" fill="white"/>
<path d="M219.764 11.9588H215.82V1.84568H211.382V40.0355H215.82V16.5517H219.764V41.0562H224.365V1.18225H219.764V11.9588Z" fill="white"/>
<path d="M204.873 17.2408C203.817 14.9358 203.382 12.3586 203.382 9.19457V7.68909H208.707V3.3938H193.236V7.68909H198.731V9.27962C198.731 12.2736 198.339 14.7232 197.393 16.9941C196.294 19.6053 194.446 21.9529 191.498 24.4705L191.294 24.6576L194.207 27.541L194.386 27.4049C195.851 26.3247 197.385 24.7597 198.663 23.1436C199.745 21.7827 200.656 20.3708 201.227 19.129C201.815 20.3368 202.735 21.7232 203.808 23.016C205.052 24.53 206.457 25.9675 207.803 26.8265L207.982 26.9456L210.436 24.0197L210.24 23.8411C207.599 21.5446 205.963 19.4948 204.89 17.2323L204.873 17.2408Z" fill="white"/>
<path d="M74.1237 20.5153H89.7049V25.0573H94.7907V20.5153H110.619V16.4412H74.1237V20.5153Z" fill="white"/>
<path d="M251.089 19.2141H235.226V7.16174H247.306V2.91748H230.473V23.3307H251.089V19.2141Z" fill="white"/>
<path d="M242.118 28.3489H237.373V41.0561H259.565V36.8714H242.118V28.3489Z" fill="white"/>
<path d="M259.454 12.2224V1.17371H254.769V30.5943H259.454V16.4581H265V12.2224H259.454Z" fill="white"/>
</svg>
