<svg width="181" height="60" viewBox="0 0 181 60" fill="none" xmlns="http://www.w3.org/2000/svg">
<g clip-path="url(#clip0_34_279)">
<path d="M52.9056 45.6224C51.6698 45.1808 51.4356 44.8864 51.4356 44.3799C51.4356 43.8733 51.7912 43.4707 52.6367 43.4707C53.2568 43.4707 53.6687 43.6742 54.1197 44.0465L54.562 43.5053C54.0416 43.0897 53.5126 42.8473 52.6801 42.8473C51.5267 42.8473 50.7462 43.4361 50.7462 44.4232C50.7462 45.315 51.1971 45.7479 52.5327 46.2242C53.6644 46.6311 54.007 46.9558 54.007 47.5273C54.007 48.181 53.4953 48.588 52.6757 48.588C52.0383 48.588 51.5006 48.2936 51.0323 47.8476L50.577 48.3585C51.0627 48.8521 51.8128 49.2157 52.6541 49.2157C53.9419 49.2157 54.7007 48.4624 54.7007 47.497C54.7007 46.5315 54.2801 46.1203 52.9099 45.6267L52.9056 45.6224Z" fill="white"/>
<path d="M57.5019 44.3928C56.8992 44.3928 56.3528 44.54 55.9452 44.7608L56.1967 45.2976C56.574 45.0768 56.9729 44.9426 57.4585 44.9426C58.135 44.9426 58.4645 45.276 58.4645 45.9687V46.5142C58.1913 46.3627 57.7707 46.2458 57.3068 46.2458C56.3918 46.2458 55.5333 46.6874 55.5333 47.7264C55.5333 48.8434 56.2921 49.207 57.0119 49.207C57.6797 49.207 58.135 48.8953 58.4645 48.5446V49.1118H59.1236V45.8821C59.1236 44.8084 58.4992 44.3842 57.5019 44.3842V44.3928ZM58.4645 47.9818C58.1827 48.3671 57.7317 48.6745 57.1333 48.6745C56.5653 48.6745 56.1837 48.3758 56.1837 47.6874C56.1837 47.1073 56.5913 46.7783 57.2721 46.7783C57.8358 46.7783 58.161 46.8822 58.4645 47.0467V47.9861V47.9818Z" fill="white"/>
<path d="M65.7753 46.406V49.1161H66.4344V46.2977C66.4344 44.947 65.8447 44.3928 64.8994 44.3928C64.1449 44.3928 63.7677 44.7435 63.4945 45.1851C63.2733 44.7435 62.8787 44.3928 62.224 44.3928C61.6776 44.3928 61.2874 44.6569 61.0489 45.0552V44.4924H60.3811V49.1204H61.0489V46.4103C61.0489 45.3842 61.4435 44.9643 62.0809 44.9643C62.7183 44.9643 63.0782 45.3496 63.0782 46.4103V49.1204H63.7416V46.4103C63.7416 45.3842 64.1449 44.9643 64.7736 44.9643C65.4414 44.9643 65.771 45.3496 65.771 46.4103L65.7753 46.406Z" fill="white"/>
<path d="M69.0925 46.4233C68.3076 46.0683 68.0735 45.9168 68.0735 45.5228C68.0735 45.1851 68.351 44.9514 68.841 44.9514C69.331 44.9514 69.6345 45.0812 69.9944 45.367L70.363 44.8778C70.0117 44.5877 69.5174 44.3885 68.8843 44.3885C68.0388 44.3885 67.4361 44.8648 67.4361 45.5661C67.4361 46.3064 67.822 46.5878 68.7542 46.9861C69.5738 47.3368 69.847 47.549 69.847 47.9299C69.847 48.3802 69.5478 48.6443 68.9103 48.6443C68.4507 48.6443 68.0171 48.4581 67.6485 48.1334L67.2583 48.614C67.7006 48.969 68.2556 49.2071 68.893 49.2071C69.6952 49.2071 70.48 48.8131 70.48 47.8996C70.48 47.0727 69.9684 46.8173 69.0881 46.419L69.0925 46.4233Z" fill="white"/>
<path d="M74.3479 47.194C74.3479 48.207 73.8406 48.6356 73.2032 48.6356C72.4573 48.6356 72.1061 48.1897 72.1061 47.194V44.4882H71.447V47.3065C71.447 48.6356 72.0931 49.2114 73.0687 49.2114C73.6541 49.2114 74.0834 48.9387 74.3479 48.5491V49.1162H75.0113V44.4882H74.3479V47.194Z" fill="white"/>
<path d="M79.6944 49.1161V46.2977C79.6944 44.9643 79.0483 44.3928 78.0683 44.3928C77.4873 44.3928 77.0537 44.6656 76.7935 45.0552V44.4924H76.1257V49.1204H76.7935V46.4103C76.7935 45.3972 77.2922 44.9643 77.9339 44.9643C78.6754 44.9643 79.031 45.4145 79.031 46.4103V49.1204H79.6944V49.1161Z" fill="white"/>
<path d="M81.7801 50.3111L81.9926 50.8133C83.714 50.7613 84.3384 50.0903 84.3384 48.6962V44.4838H83.675V45.0033C83.3498 44.631 82.9509 44.3885 82.3698 44.3885C81.3985 44.3885 80.618 45.2328 80.618 46.8736C80.618 48.5144 81.3551 49.2071 82.2787 49.2071C82.9075 49.2071 83.3498 48.8954 83.675 48.5447V48.7828C83.675 49.8608 83.3238 50.2678 81.7758 50.3067L81.7801 50.3111ZM82.4479 48.6356C81.715 48.6356 81.2728 48.0295 81.2728 46.8649C81.2728 45.6224 81.65 44.96 82.4218 44.96C82.9725 44.96 83.4192 45.2674 83.675 45.6527V47.9689C83.3498 48.3759 82.9422 48.6356 82.4479 48.6356Z" fill="white"/>
<path d="M91.6492 45.986C91.6492 43.869 90.4524 42.9425 88.8307 42.9425H87.196V49.1161H88.7093C90.3614 49.1161 91.6492 48.2243 91.6492 45.986ZM87.8854 43.5659H88.7787C90.2009 43.5659 90.9598 44.4318 90.9598 46.0077C90.9598 47.7827 90.1272 48.4884 88.796 48.4884H87.8854V43.5659Z" fill="white"/>
<path d="M93.414 45.0596V44.4881H92.7506V49.1162H93.414V46.3974C93.414 45.5142 93.7783 44.999 94.4243 44.999C94.7322 44.999 94.9317 45.0683 95.1181 45.1765L95.2829 44.5098C95.1268 44.4405 94.9057 44.3972 94.5588 44.3972C94.0601 44.3972 93.6222 44.6959 93.414 45.0639V45.0596Z" fill="white"/>
<path d="M99.2462 48.6746L98.934 48.1984C98.509 48.4798 98.1925 48.6399 97.6505 48.6399C96.896 48.6399 96.4233 48.0122 96.3626 47.0294H99.45C99.4717 46.9212 99.4803 46.826 99.4803 46.6701C99.4803 45.3497 98.8212 44.3972 97.6114 44.3972C96.51 44.3972 95.6992 45.3107 95.6992 46.7783C95.6992 48.601 96.7312 49.2157 97.5811 49.2157C98.2792 49.2157 98.6868 49.0296 99.2462 48.6789V48.6746ZM97.6114 44.9644C98.4223 44.9644 98.8126 45.5921 98.8646 46.4883H96.3626C96.4407 45.4536 96.922 44.9644 97.6114 44.9644Z" fill="white"/>
<path d="M101.692 49.2114C102.355 49.2114 102.811 48.8997 103.136 48.549V49.1162H103.799V45.8865C103.799 44.8128 103.175 44.3885 102.177 44.3885C101.575 44.3885 101.028 44.5357 100.621 44.7565L100.868 45.2934C101.249 45.0726 101.644 44.9384 102.13 44.9384C102.81 44.9384 103.136 45.2717 103.136 45.9644V46.5099C102.863 46.3584 102.446 46.2415 101.982 46.2415C101.063 46.2415 100.2 46.6831 100.2 47.7221C100.2 48.8391 100.963 49.2028 101.687 49.2028L101.692 49.2114ZM101.948 46.774C102.511 46.774 102.841 46.8779 103.14 47.0424V47.9819C102.858 48.3672 102.407 48.6746 101.809 48.6746C101.245 48.6746 100.859 48.3759 100.859 47.6875C100.859 47.1074 101.271 46.7783 101.948 46.7783V46.774Z" fill="white"/>
<path d="M110.451 46.406V49.1161H111.114V46.2977C111.114 44.947 110.525 44.3928 109.579 44.3928C108.829 44.3928 108.448 44.7435 108.179 45.1851C107.958 44.7435 107.563 44.3928 106.908 44.3928C106.357 44.3928 105.972 44.6569 105.733 45.0552V44.4924H105.074V49.1204H105.733V46.4103C105.733 45.3842 106.132 44.9643 106.769 44.9643C107.407 44.9643 107.771 45.3496 107.771 46.4103V49.1204H108.43V46.4103C108.43 45.3842 108.833 44.9643 109.467 44.9643C110.134 44.9643 110.464 45.3496 110.464 46.4103L110.451 46.406Z" fill="white"/>
<path d="M52.9056 54.8048C51.6654 54.3632 51.4399 54.0732 51.4399 53.5623C51.4399 53.0514 51.7955 52.6575 52.6411 52.6575C53.2611 52.6575 53.6774 52.8566 54.124 53.2289L54.5663 52.6921C54.046 52.2808 53.5126 52.0341 52.6844 52.0341C51.5267 52.0341 50.7505 52.6142 50.7505 53.6099C50.7505 54.5018 51.2015 54.9304 52.537 55.4066C53.6687 55.8179 54.0113 56.1382 54.0113 56.714C54.0113 57.3634 53.4996 57.7704 52.6757 57.7704C52.0383 57.7704 51.5006 57.476 51.0323 57.0301L50.577 57.5409C51.0627 58.0345 51.8128 58.3938 52.6541 58.3938C53.9419 58.3938 54.6964 57.6449 54.6964 56.6751C54.6964 55.7053 54.2758 55.2984 52.9099 54.8048H52.9056Z" fill="white"/>
<path d="M57.5106 54.1468C57.9789 54.1468 58.2867 54.3114 58.6206 54.6144L59.0196 54.1209C58.6553 53.8005 58.174 53.571 57.5539 53.571C56.5826 53.571 55.555 54.294 55.555 56.0041C55.555 57.619 56.4872 58.3896 57.5062 58.3896C58.1567 58.3896 58.6076 58.1428 58.9979 57.7445L58.599 57.3246C58.2824 57.6319 57.9832 57.8138 57.5323 57.8138C56.7127 57.8138 56.2227 57.0821 56.2227 55.9435C56.2227 54.8049 56.7821 54.1382 57.5062 54.1382L57.5106 54.1468Z" fill="white"/>
<path d="M61.8511 53.5754C61.27 53.5754 60.8321 53.8481 60.5676 54.2378V52.0645H59.9085V58.3073H60.5676V55.5972C60.5676 54.5841 61.0749 54.1512 61.7167 54.1512C62.4625 54.1512 62.8137 54.5971 62.8137 55.5972V58.3073H63.4771V55.4803C63.4771 54.1512 62.831 53.5754 61.8511 53.5754Z" fill="white"/>
<path d="M66.4344 53.5753C65.307 53.5753 64.4094 54.4195 64.4094 55.9911C64.4094 57.5626 65.2723 58.3982 66.3997 58.3982C67.5271 58.3982 68.4334 57.528 68.4334 55.9564C68.4334 54.3849 67.5618 53.5753 66.4344 53.5753ZM66.4214 57.8224C65.6149 57.8224 65.0728 57.1903 65.0728 55.9738C65.0728 54.7572 65.6149 54.1511 66.4214 54.1511C67.2279 54.1511 67.7699 54.7572 67.7699 55.9738C67.7699 57.1903 67.2236 57.8224 66.4214 57.8224Z" fill="white"/>
<path d="M70.0941 52.0601H69.4307V58.3029H70.0941V52.0601Z" fill="white"/>
<path d="M73.1251 53.5753C72.5224 53.5753 71.976 53.7268 71.5728 53.9476L71.8199 54.4888C72.2015 54.268 72.6004 54.1338 73.0861 54.1338C73.7625 54.1338 74.0921 54.4715 74.0921 55.1555V55.7053C73.8189 55.5538 73.4026 55.4369 72.9387 55.4369C72.0194 55.4369 71.1608 55.8785 71.1608 56.9219C71.1608 58.0388 71.9196 58.3982 72.6438 58.3982C73.3072 58.3982 73.7625 58.0908 74.0921 57.7401V58.3073H74.7555V55.0819C74.7555 53.9996 74.1268 53.5796 73.1294 53.5796L73.1251 53.5753ZM74.0877 57.1643C73.8102 57.5453 73.3506 57.857 72.7565 57.857C72.1928 57.857 71.8112 57.5583 71.8112 56.8699C71.8112 56.2855 72.2188 55.9651 72.8996 55.9651C73.4633 55.9651 73.7885 56.0603 74.0877 56.2292V57.1643Z" fill="white"/>
<path d="M76.6764 54.2464V53.6662H76.013V58.2986H76.6764V55.5798C76.6764 54.7009 77.032 54.1771 77.6824 54.1771C77.9946 54.1771 78.1941 54.2464 78.3805 54.3546L78.5496 53.6835C78.3892 53.6143 78.1724 53.5667 77.8255 53.5667C77.3312 53.5667 76.8846 53.8654 76.6808 54.242L76.6764 54.2464Z" fill="white"/>
<path d="M81.0906 55.6101C80.3058 55.2551 80.0673 55.0949 80.0673 54.7096C80.0673 54.3762 80.3492 54.1381 80.8348 54.1381C81.3205 54.1381 81.6327 54.2723 81.9926 54.5537L82.3611 54.0689C82.0056 53.7788 81.5156 53.5753 80.8782 53.5753C80.037 53.5753 79.4256 54.0515 79.4256 54.7572C79.4256 55.4629 79.8158 55.7789 80.7438 56.1729C81.5633 56.5236 81.8365 56.74 81.8365 57.1167C81.8365 57.5713 81.5373 57.831 80.9042 57.831C80.4402 57.831 80.0109 57.6449 79.638 57.3202L79.2521 57.8051C79.6944 58.1601 80.2494 58.3938 80.8868 58.3938C81.689 58.3938 82.4739 57.9955 82.4739 57.0907C82.4739 56.2595 81.9622 56.0084 81.0863 55.6101H81.0906Z" fill="white"/>
<path d="M85.5005 53.5754C84.9108 53.5754 84.4815 53.8481 84.217 54.2378V52.0645H83.5536V58.3073H84.217V55.5972C84.217 54.5841 84.72 54.1512 85.3661 54.1512C86.1076 54.1512 86.4588 54.5971 86.4588 55.5972V58.3073H87.1223V55.4803C87.1223 54.1512 86.4805 53.5754 85.5005 53.5754Z" fill="white"/>
<path d="M89.0909 53.6663H88.4318V58.2986H89.0909V53.6663Z" fill="white"/>
<path d="M88.7743 51.8999C88.5055 51.8999 88.293 52.112 88.293 52.3805C88.293 52.6489 88.5055 52.848 88.7743 52.848C89.0215 52.848 89.234 52.6316 89.234 52.3805C89.234 52.112 89.0215 51.8999 88.7743 51.8999Z" fill="white"/>
<path d="M92.4861 53.5753C91.8617 53.5753 91.4194 53.887 91.0898 54.2377V53.6706H90.4264V60.0044H91.0898V57.7834C91.4151 58.1514 91.814 58.3982 92.3994 58.3982C93.3663 58.3982 94.1468 57.5496 94.1468 55.9131C94.1468 54.2767 93.4097 53.5753 92.4861 53.5753ZM92.343 57.8224C91.7966 57.8224 91.3457 57.515 91.0898 57.1254V54.8135C91.4151 54.4109 91.8226 54.1468 92.317 54.1468C93.0541 54.1468 93.4964 54.7529 93.4964 55.9175C93.4964 57.16 93.1148 57.818 92.3473 57.818L92.343 57.8224Z" fill="white"/>
<path d="M97.6548 52.7528H100.595V52.1294H96.9653V58.303H97.6548V55.424H99.3502V54.8006H97.6548V52.7528Z" fill="white"/>
<path d="M102.607 53.5753C101.479 53.5753 100.577 54.4195 100.577 55.9911C100.577 57.5626 101.445 58.3982 102.572 58.3982C103.699 58.3982 104.606 57.528 104.606 55.9564C104.606 54.3849 103.743 53.5753 102.607 53.5753ZM102.589 57.8224C101.783 57.8224 101.249 57.1903 101.249 55.9738C101.249 54.7572 101.787 54.1511 102.589 54.1511C103.392 54.1511 103.942 54.7572 103.942 55.9738C103.942 57.1903 103.396 57.8224 102.589 57.8224Z" fill="white"/>
<path d="M108.261 56.3764C108.261 57.3895 107.762 57.8224 107.116 57.8224C106.375 57.8224 106.019 57.3765 106.019 56.3764V53.6663H105.36V56.489C105.36 57.8181 106.006 58.3939 106.986 58.3939C107.563 58.3939 107.997 58.1255 108.261 57.7358V58.303H108.929V53.6706H108.261V56.3807V56.3764Z" fill="white"/>
<path d="M111.981 53.5754C111.4 53.5754 110.967 53.8481 110.702 54.2378V53.6706H110.039V58.303H110.702V55.5928C110.702 54.5798 111.205 54.1468 111.851 54.1468C112.593 54.1468 112.944 54.5928 112.944 55.5928V58.303H113.608V55.4759C113.608 54.1468 112.961 53.571 111.981 53.571V53.5754Z" fill="white"/>
<path d="M117.592 54.1944C117.263 53.8221 116.868 53.571 116.283 53.571C115.312 53.571 114.535 54.4152 114.535 56.0603C114.535 57.7055 115.268 58.3939 116.196 58.3939C116.825 58.3939 117.263 58.0865 117.588 57.7358V58.3029H118.252V52.0601H117.588V54.1944H117.592ZM117.592 57.1513C117.263 57.554 116.86 57.8181 116.365 57.8181C115.633 57.8181 115.19 57.2119 115.19 56.0474C115.19 54.8005 115.567 54.1425 116.339 54.1425C116.886 54.1425 117.332 54.4498 117.592 54.8395V57.147V57.1513Z" fill="white"/>
<path d="M121.061 53.5753C120.463 53.5753 119.917 53.7268 119.509 53.9476L119.752 54.4888C120.133 54.268 120.532 54.1338 121.018 54.1338C121.694 54.1338 122.02 54.4715 122.02 55.1555V55.7053C121.747 55.5538 121.33 55.4369 120.862 55.4369C119.947 55.4369 119.088 55.8785 119.088 56.9219C119.088 58.0388 119.852 58.3982 120.576 58.3982C121.239 58.3982 121.694 58.0908 122.02 57.7401V58.3073H122.683V55.0819C122.683 53.9996 122.059 53.5796 121.057 53.5796L121.061 53.5753ZM122.02 57.1643C121.738 57.5453 121.291 57.857 120.684 57.857C120.125 57.857 119.748 57.5583 119.748 56.8699C119.748 56.2855 120.151 55.9651 120.832 55.9651C121.395 55.9651 121.725 56.0603 122.02 56.2292V57.1643Z" fill="white"/>
<path d="M124.799 52.0601H124.131V53.6662H123.559V54.2247H124.131V57.3462C124.131 58.1124 124.444 58.3895 125.02 58.3895C125.367 58.3895 125.614 58.3376 125.87 58.2337L125.918 57.6622C125.705 57.7488 125.532 57.7921 125.263 57.7921C124.912 57.7921 124.799 57.6492 124.799 57.2379V54.2247H125.948V53.6662H124.799V52.0601Z" fill="white"/>
<path d="M127.453 51.8999C127.18 51.8999 126.963 52.112 126.963 52.3805C126.963 52.6489 127.18 52.848 127.453 52.848C127.7 52.848 127.908 52.6316 127.908 52.3805C127.908 52.112 127.696 51.8999 127.453 51.8999Z" fill="white"/>
<path d="M127.769 53.6663H127.106V58.2986H127.769V53.6663Z" fill="white"/>
<path d="M130.796 53.5753C129.669 53.5753 128.767 54.4195 128.767 55.9911C128.767 57.5626 129.63 58.3982 130.761 58.3982C131.893 58.3982 132.791 57.528 132.791 55.9564C132.791 54.3849 131.924 53.5753 130.796 53.5753ZM130.779 57.8224C129.977 57.8224 129.435 57.1903 129.435 55.9738C129.435 54.7572 129.977 54.1511 130.779 54.1511C131.581 54.1511 132.132 54.7572 132.132 55.9738C132.132 57.1903 131.585 57.8224 130.779 57.8224Z" fill="white"/>
<path d="M135.692 53.5754C135.111 53.5754 134.677 53.8481 134.408 54.2378V53.6706H133.745V58.303H134.408V55.5928C134.408 54.5798 134.911 54.1468 135.557 54.1468C136.299 54.1468 136.654 54.5928 136.654 55.5928V58.303H137.313V55.4759C137.313 54.1468 136.667 53.571 135.692 53.571V53.5754Z" fill="white"/>
<path d="M76.0867 30.7902C73.4243 30.7945 71.2302 32.8726 71.2302 35.4788C71.2302 38.0851 73.4243 40.1415 76.0867 40.1501C78.7751 40.1415 80.9475 38.0591 80.9475 35.4788C80.9475 32.8985 78.7751 30.7945 76.0867 30.7902ZM76.0217 38.0115C74.6298 38.0115 73.5804 36.8772 73.5804 35.4788C73.5804 34.0804 74.7035 32.9245 76.091 32.9245C77.4786 32.9245 78.5627 34.0588 78.5627 35.4788C78.5627 36.8988 77.4266 38.0115 76.026 38.0115H76.0217Z" fill="white"/>
<path d="M53.8031 27.5648C54.5446 28.2964 55.3945 28.9372 56.2314 29.3485L56.3181 29.3961L57.7534 27.7033L57.6146 27.6254C56.2531 26.8894 55.1864 25.9586 54.4883 24.7854C53.7945 23.6294 53.4389 22.2873 53.4389 20.6812V19.1746H50.8719V20.521C50.8719 22.2614 50.4773 23.6294 49.7358 24.8286C48.9076 26.1577 47.6805 27.2271 46.1108 28.2185L45.972 28.3051L47.5287 29.9156L47.6154 29.868C48.5434 29.3658 49.5277 28.5908 50.3819 27.725C51.1234 26.9673 51.7651 26.1577 52.1554 25.3915C52.5327 26.1448 53.1094 26.911 53.8031 27.5691V27.5648Z" fill="white"/>
<path d="M51.0237 39.0418H61.7687V31.7123H51.0237V39.0418ZM53.4389 33.7817H59.3534V36.9724H53.4389V33.7817Z" fill="white"/>
<path d="M86.8491 39.0418H98.999V31.7123H86.8491V39.0418ZM89.2383 33.7817H96.6141V36.9724H89.2383V33.7817Z" fill="white"/>
<path d="M61.8121 18.7417H59.4228V30.8724H61.8121V25.5041H64.6089V23.3481H61.8121V18.7417Z" fill="white"/>
<path d="M111.348 28.1839C112.133 28.8636 113.031 29.4351 113.876 29.8031L113.963 29.8421L115.255 28.0974L115.117 28.0281C113.885 27.4003 112.788 26.6211 111.999 25.6686C111.197 24.6988 110.72 23.5299 110.72 22.1229V21.7116H114.275V19.6249H104.623V21.7116H108.174V22.2138C108.174 23.4953 107.749 24.6902 107.043 25.7249C106.214 26.9674 105.005 27.9675 103.829 28.6169L103.673 28.6991L105.26 30.3399L105.347 30.2966C106.201 29.8118 107.147 29.0801 107.953 28.2575C108.599 27.5822 109.18 26.8678 109.536 26.1535C109.965 26.8462 110.624 27.5389 111.353 28.1839H111.348Z" fill="white"/>
<path d="M128.628 33.8293H137.313V39.0375H139.724V31.7599H128.628V33.8293Z" fill="white"/>
<path d="M134.621 25.4867C134.621 24.3395 134.105 23.2831 133.341 22.4779H135.726V20.4128H131.173V18.1399H128.585V20.4128H123.923V22.4779H126.36C125.614 23.2831 125.098 24.3308 125.098 25.4867C125.098 28.0454 127.21 30.1234 129.851 30.1321C132.492 30.1234 134.616 28.0454 134.621 25.4867ZM127.401 25.3915C127.401 23.9758 128.598 22.7766 129.851 22.7766C131.104 22.7766 132.296 23.9801 132.301 25.3915C132.301 26.7855 131.104 27.9891 129.851 27.9934C128.593 27.9891 127.405 26.7855 127.401 25.3915Z" fill="white"/>
<path d="M139.724 18.7417H137.339V30.9157H139.724V26.2704H142.53V24.1144H139.724V18.7417Z" fill="white"/>
<path d="M119.487 18.7417H117.103V30.9157H119.487V25.5041H122.289V23.3481H119.487V18.7417Z" fill="white"/>
<path d="M79.0049 22.3523H75.2498V24.4867H79.0049V31.301H81.3942V18.7417H79.0049V22.3523Z" fill="white"/>
<path d="M72.9387 27.8808C73.6845 28.6081 74.556 29.2489 75.3886 29.6818L75.4796 29.7338L76.9149 28.041L76.7762 27.9631C75.4146 27.2487 74.3696 26.3223 73.6671 25.1663C72.956 24.0191 72.6004 22.625 72.6004 21.0188V19.1746H70.0291V20.863C70.0291 22.6034 69.6388 23.9671 68.9147 25.1447C68.0908 26.4954 66.8377 27.5734 65.268 28.5562L65.1336 28.6428L66.6989 30.2576L66.777 30.2057C67.7006 29.6991 68.6632 28.9675 69.5174 28.1319C70.2893 27.3656 70.931 26.5301 71.3213 25.7291C71.6898 26.4608 72.2535 27.2054 72.9387 27.8851V27.8808Z" fill="white"/>
<path d="M114.366 30.7902C111.704 30.7945 109.51 32.8726 109.506 35.4788C109.51 38.0591 111.7 40.1415 114.366 40.1501C117.05 40.1415 119.227 38.0591 119.227 35.4788C119.227 32.8985 117.05 30.7945 114.366 30.7902ZM114.297 38.0115C112.909 38.0115 111.851 36.8772 111.851 35.4788C111.851 34.0804 112.97 32.9245 114.366 32.9245C115.763 32.9245 116.834 34.0588 116.838 35.4788C116.838 36.8728 115.698 38.0115 114.297 38.0115Z" fill="white"/>
<path d="M89.7586 25.6989H92.1479V19.5037H85.7V21.5644H89.7586V25.6989Z" fill="white"/>
<path d="M96.9306 25.6989H99.3242V19.5037H92.8763V21.5644H96.9306V25.6989Z" fill="white"/>
<path d="M157.832 24.2269H155.824V19.0794H153.565V38.518H155.824V26.5648H157.832V39.0375H160.174V18.7417H157.832V24.2269Z" fill="white"/>
<path d="M150.252 26.9154C149.715 25.7422 149.494 24.4304 149.494 22.8199V22.0536H152.204V19.8673H144.329V22.0536H147.126V22.8632C147.126 24.3871 146.927 25.634 146.445 26.7899C145.886 28.119 144.945 29.3139 143.445 30.5954L143.341 30.6906L144.824 32.1582L144.915 32.089C145.66 31.5391 146.441 30.7426 147.091 29.92C147.642 29.2273 148.106 28.5086 148.397 27.8765C148.696 28.4913 149.164 29.197 149.71 29.855C150.344 30.6257 151.059 31.3573 151.744 31.7946L151.835 31.8552L153.084 30.3659L152.984 30.275C151.64 29.1061 150.808 28.0627 150.261 26.9111L150.252 26.9154Z" fill="white"/>
<path d="M83.701 28.5822H91.6319V30.894H94.2205V28.5822H102.277V26.5084H83.701V28.5822Z" fill="white"/>
<path d="M173.776 27.9198H165.702V21.7852H171.851V19.6249H163.283V30.0152H173.776V27.9198Z" fill="white"/>
<path d="M169.21 32.5695H166.795V39.0375H178.091V36.9074H169.21V32.5695Z" fill="white"/>
<path d="M178.034 24.3611V18.7373H175.649V33.7124H178.034V26.5171H180.857V24.3611H178.034Z" fill="white"/>
<path d="M50.6508 12.4771L44.463 9.91847L50.6508 7.35984L49.5494 4.71463L43.366 7.27325L45.9287 1.09532L43.2749 0L40.7166 6.17794L38.1539 0L35.5002 1.09532L38.0629 7.27325L31.8795 4.71463L30.7824 7.35984L36.9658 9.91847L30.7824 12.4771L31.8795 15.1223L38.0629 12.5637L35.5002 18.7416L38.1539 19.8369L40.7166 13.6633L43.2749 19.8369L45.9287 18.7373L43.366 12.5637L49.5494 15.1223L50.6508 12.4771Z" fill="white"/>
<path d="M10.6149 29.7121H14.73V18.7416H0.659103V22.4388H10.6149V29.7121Z" fill="white"/>
<path d="M26.6674 29.7121H30.7824V18.7416H16.7116V22.4388H26.6674V29.7121Z" fill="white"/>
<path d="M0 35.3878H26.6674V41.0375H30.7824V31.6906H0V35.3878Z" fill="white"/>
<path d="M9.95584 58.3029H30.7824V42.9381H9.95584V58.3029ZM14.0709 46.6353H26.6718V54.6056H14.0709V46.6353Z" fill="white"/>
</g>
<defs>
<clipPath id="clip0_34_279">
<rect width="180.857" height="60" fill="white"/>
</clipPath>
</defs>
</svg>
