<svg width="182" height="60" viewBox="0 0 182 60" fill="none" xmlns="http://www.w3.org/2000/svg">
<g clip-path="url(#clip0_7_272)">
<path d="M52.9799 45.6224C51.7423 45.1808 51.5078 44.8864 51.5078 44.3799C51.5078 43.8733 51.8639 43.4707 52.7106 43.4707C53.3316 43.4707 53.7441 43.6742 54.1957 44.0465L54.6386 43.5053C54.1175 43.0897 53.5878 42.8473 52.7541 42.8473C51.599 42.8473 50.8174 43.4361 50.8174 44.4232C50.8174 45.315 51.269 45.7479 52.6064 46.2242C53.7398 46.6311 54.0828 46.9558 54.0828 47.5273C54.0828 48.181 53.5704 48.588 52.7497 48.588C52.1114 48.588 51.573 48.2936 51.104 47.8476L50.6481 48.3585C51.1344 48.8521 51.8856 49.2157 52.728 49.2157C54.0177 49.2157 54.7776 48.4624 54.7776 47.497C54.7776 46.5315 54.3564 46.1203 52.9842 45.6267L52.9799 45.6224Z" fill="#004289"/>
<path d="M57.5827 44.3928C56.9791 44.3928 56.432 44.54 56.0238 44.7608L56.2757 45.2976C56.6535 45.0768 57.053 44.9426 57.5393 44.9426C58.2167 44.9426 58.5467 45.276 58.5467 45.9687V46.5142C58.2731 46.3627 57.8519 46.2458 57.3873 46.2458C56.4711 46.2458 55.6113 46.6874 55.6113 47.7264C55.6113 48.8434 56.3712 49.207 57.092 49.207C57.7607 49.207 58.2167 48.8953 58.5467 48.5446V49.1118H59.2067V45.8821C59.2067 44.8084 58.5814 44.3842 57.5827 44.3842V44.3928ZM58.5467 47.9818C58.2644 48.3671 57.8128 48.6745 57.2136 48.6745C56.6448 48.6745 56.2627 48.3758 56.2627 47.6874C56.2627 47.1073 56.6708 46.7783 57.3526 46.7783C57.9171 46.7783 58.2427 46.8822 58.5467 47.0467V47.9861V47.9818Z" fill="#004289"/>
<path d="M65.8677 46.406V49.1161H66.5277V46.2977C66.5277 44.947 65.9372 44.3928 64.9906 44.3928C64.235 44.3928 63.8572 44.7435 63.5837 45.1851C63.3622 44.7435 62.9671 44.3928 62.3114 44.3928C61.7643 44.3928 61.3735 44.6569 61.1346 45.0552V44.4924H60.4659V49.1204H61.1346V46.4103C61.1346 45.3842 61.5298 44.9643 62.1681 44.9643C62.8064 44.9643 63.1668 45.3496 63.1668 46.4103V49.1204H63.8312V46.4103C63.8312 45.3842 64.235 44.9643 64.8646 44.9643C65.5334 44.9643 65.8634 45.3496 65.8634 46.4103L65.8677 46.406Z" fill="#004289"/>
<path d="M69.1896 46.4233C68.4036 46.0683 68.1691 45.9168 68.1691 45.5228C68.1691 45.1851 68.447 44.9514 68.9377 44.9514C69.4284 44.9514 69.7323 45.0812 70.0927 45.367L70.4618 44.8778C70.1101 44.5877 69.6151 44.3885 68.9811 44.3885C68.1344 44.3885 67.5308 44.8648 67.5308 45.5661C67.5308 46.3064 67.9173 46.5878 68.8509 46.9861C69.6715 47.3368 69.9451 47.549 69.9451 47.9299C69.9451 48.3802 69.6455 48.6443 69.0072 48.6443C68.5469 48.6443 68.1127 48.4581 67.7436 48.1334L67.3528 48.614C67.7957 48.969 68.3515 49.2071 68.9898 49.2071C69.7931 49.2071 70.5791 48.8131 70.5791 47.8996C70.5791 47.0727 70.0667 46.8173 69.1852 46.419L69.1896 46.4233Z" fill="#004289"/>
<path d="M74.4523 47.194C74.4523 48.207 73.9443 48.6356 73.306 48.6356C72.5591 48.6356 72.2074 48.1897 72.2074 47.194V44.4882H71.5474V47.3065C71.5474 48.6356 72.1944 49.2114 73.1714 49.2114C73.7576 49.2114 74.1875 48.9387 74.4523 48.5491V49.1162H75.1167V44.4882H74.4523V47.194Z" fill="#004289"/>
<path d="M79.8063 49.1161V46.2977C79.8063 44.9643 79.1593 44.3928 78.178 44.3928C77.5961 44.3928 77.1619 44.6656 76.9014 45.0552V44.4924H76.2327V49.1204H76.9014V46.4103C76.9014 45.3972 77.4007 44.9643 78.0434 44.9643C78.7859 44.9643 79.142 45.4145 79.142 46.4103V49.1204H79.8063V49.1161Z" fill="#004289"/>
<path d="M81.8949 50.3111L82.1077 50.8133C83.8316 50.7613 84.4569 50.0903 84.4569 48.6962V44.4838H83.7925V45.0033C83.4668 44.631 83.0673 44.3885 82.4855 44.3885C81.5128 44.3885 80.7312 45.2328 80.7312 46.8736C80.7312 48.5144 81.4694 49.2071 82.3943 49.2071C83.0239 49.2071 83.4668 48.8954 83.7925 48.5447V48.7828C83.7925 49.8608 83.4408 50.2678 81.8906 50.3067L81.8949 50.3111ZM82.5636 48.6356C81.8298 48.6356 81.3869 48.0295 81.3869 46.8649C81.3869 45.6224 81.7647 44.96 82.5376 44.96C83.089 44.96 83.5363 45.2674 83.7925 45.6527V47.9689C83.4668 48.3759 83.0587 48.6356 82.5636 48.6356Z" fill="#004289"/>
<path d="M91.7779 45.986C91.7779 43.869 90.5794 42.9425 88.9554 42.9425H87.3184V49.1161H88.8338C90.4882 49.1161 91.7779 48.2243 91.7779 45.986ZM88.0088 43.5659H88.9033C90.3275 43.5659 91.0874 44.4318 91.0874 46.0077C91.0874 47.7827 90.2537 48.4884 88.9207 48.4884H88.0088V43.5659Z" fill="#004289"/>
<path d="M93.5452 45.0596V44.4881H92.8809V49.1162H93.5452V46.3974C93.5452 45.5142 93.91 44.999 94.557 44.999C94.8653 44.999 95.065 45.0683 95.2517 45.1765L95.4167 44.5098C95.2604 44.4405 95.039 44.3972 94.6916 44.3972C94.1922 44.3972 93.7537 44.6959 93.5452 45.0639V45.0596Z" fill="#004289"/>
<path d="M99.3855 48.6746L99.0728 48.1984C98.6473 48.4798 98.3303 48.6399 97.7875 48.6399C97.032 48.6399 96.5587 48.0122 96.4979 47.0294H99.5896C99.6113 46.9212 99.6199 46.826 99.6199 46.6701C99.6199 45.3497 98.9599 44.3972 97.7484 44.3972C96.6455 44.3972 95.8335 45.3107 95.8335 46.7783C95.8335 48.601 96.867 49.2157 97.718 49.2157C98.4171 49.2157 98.8253 49.0296 99.3855 48.6789V48.6746ZM97.7484 44.9644C98.5604 44.9644 98.9512 45.5921 99.0033 46.4883H96.4979C96.576 45.4536 97.058 44.9644 97.7484 44.9644Z" fill="#004289"/>
<path d="M101.835 49.2114C102.499 49.2114 102.955 48.8997 103.281 48.549V49.1162H103.945V45.8865C103.945 44.8128 103.32 44.3885 102.321 44.3885C101.717 44.3885 101.17 44.5357 100.762 44.7565L101.01 45.2934C101.392 45.0726 101.787 44.9384 102.273 44.9384C102.955 44.9384 103.281 45.2717 103.281 45.9644V46.5099C103.007 46.3584 102.59 46.2415 102.125 46.2415C101.205 46.2415 100.341 46.6831 100.341 47.7221C100.341 48.8391 101.105 49.2028 101.83 49.2028L101.835 49.2114ZM102.091 46.774C102.655 46.774 102.985 46.8779 103.285 47.0424V47.9819C103.003 48.3672 102.551 48.6746 101.952 48.6746C101.387 48.6746 101.001 48.3759 101.001 47.6875C101.001 47.1074 101.413 46.7783 102.091 46.7783V46.774Z" fill="#004289"/>
<path d="M110.606 46.406V49.1161H111.27V46.2977C111.27 44.947 110.68 44.3928 109.733 44.3928C108.982 44.3928 108.6 44.7435 108.33 45.1851C108.109 44.7435 107.714 44.3928 107.058 44.3928C106.507 44.3928 106.12 44.6569 105.881 45.0552V44.4924H105.221V49.1204H105.881V46.4103C105.881 45.3842 106.281 44.9643 106.919 44.9643C107.558 44.9643 107.922 45.3496 107.922 46.4103V49.1204H108.582V46.4103C108.582 45.3842 108.986 44.9643 109.62 44.9643C110.289 44.9643 110.619 45.3496 110.619 46.4103L110.606 46.406Z" fill="#004289"/>
<path d="M52.9799 54.8048C51.738 54.3632 51.5122 54.0732 51.5122 53.5623C51.5122 53.0514 51.8682 52.6575 52.715 52.6575C53.3359 52.6575 53.7528 52.8566 54.2 53.2289L54.6429 52.6921C54.1219 52.2808 53.5878 52.0341 52.7584 52.0341C51.599 52.0341 50.8218 52.6142 50.8218 53.6099C50.8218 54.5018 51.2734 54.9304 52.6108 55.4066C53.7441 55.8179 54.0871 56.1382 54.0871 56.714C54.0871 57.3634 53.5748 57.7704 52.7497 57.7704C52.1114 57.7704 51.573 57.476 51.104 57.0301L50.6481 57.5409C51.1344 58.0345 51.8856 58.3938 52.728 58.3938C54.0177 58.3938 54.7732 57.6449 54.7732 56.6751C54.7732 55.7053 54.352 55.2984 52.9842 54.8048H52.9799Z" fill="#004289"/>
<path d="M57.5913 54.1468C58.0603 54.1468 58.3686 54.3114 58.7029 54.6144L59.1024 54.1209C58.7376 53.8005 58.2557 53.571 57.6347 53.571C56.662 53.571 55.6329 54.294 55.6329 56.0041C55.6329 57.619 56.5665 58.3896 57.5869 58.3896C58.2383 58.3896 58.6899 58.1428 59.0807 57.7445L58.6812 57.3246C58.3642 57.6319 58.0646 57.8138 57.613 57.8138C56.7923 57.8138 56.3016 57.0821 56.3016 55.9435C56.3016 54.8049 56.8618 54.1382 57.5869 54.1382L57.5913 54.1468Z" fill="#004289"/>
<path d="M61.9379 53.5754C61.356 53.5754 60.9174 53.8481 60.6526 54.2378V52.0645H59.9926V58.3073H60.6526V55.5972C60.6526 54.5841 61.1606 54.1512 61.8033 54.1512C62.5501 54.1512 62.9019 54.5971 62.9019 55.5972V58.3073H63.5662V55.4803C63.5662 54.1512 62.9192 53.5754 61.9379 53.5754Z" fill="#004289"/>
<path d="M66.5277 53.5753C65.3987 53.5753 64.4999 54.4195 64.4999 55.9911C64.4999 57.5626 65.364 58.3982 66.493 58.3982C67.622 58.3982 68.5295 57.528 68.5295 55.9564C68.5295 54.3849 67.6567 53.5753 66.5277 53.5753ZM66.5147 57.8224C65.707 57.8224 65.1642 57.1903 65.1642 55.9738C65.1642 54.7572 65.707 54.1511 66.5147 54.1511C67.3223 54.1511 67.8651 54.7572 67.8651 55.9738C67.8651 57.1903 67.318 57.8224 66.5147 57.8224Z" fill="#004289"/>
<path d="M70.1926 52.0601H69.5282V58.3029H70.1926V52.0601Z" fill="#004289"/>
<path d="M73.2278 53.5753C72.6242 53.5753 72.0771 53.7268 71.6733 53.9476L71.9208 54.4888C72.3029 54.268 72.7024 54.1338 73.1887 54.1338C73.8661 54.1338 74.1961 54.4715 74.1961 55.1555V55.7053C73.9225 55.5538 73.5057 55.4369 73.0411 55.4369C72.1205 55.4369 71.2607 55.8785 71.2607 56.9219C71.2607 58.0388 72.0206 58.3982 72.7458 58.3982C73.4102 58.3982 73.8661 58.0908 74.1961 57.7401V58.3073H74.8605V55.0819C74.8605 53.9996 74.2308 53.5796 73.2321 53.5796L73.2278 53.5753ZM74.1918 57.1643C73.9139 57.5453 73.4536 57.857 72.8587 57.857C72.2942 57.857 71.9121 57.5583 71.9121 56.8699C71.9121 56.2855 72.3203 55.9651 73.002 55.9651C73.5665 55.9651 73.8921 56.0603 74.1918 56.2292V57.1643Z" fill="#004289"/>
<path d="M76.7841 54.2464V53.6662H76.1198V58.2986H76.7841V55.5798C76.7841 54.7009 77.1402 54.1771 77.7915 54.1771C78.1042 54.1771 78.3039 54.2464 78.4906 54.3546L78.66 53.6835C78.4993 53.6143 78.2822 53.5667 77.9348 53.5667C77.4398 53.5667 76.9925 53.8654 76.7885 54.242L76.7841 54.2464Z" fill="#004289"/>
<path d="M81.2045 55.6101C80.4186 55.2551 80.1797 55.0949 80.1797 54.7096C80.1797 54.3762 80.462 54.1381 80.9483 54.1381C81.4347 54.1381 81.7473 54.2723 82.1077 54.5537L82.4768 54.0689C82.1207 53.7788 81.6301 53.5753 80.9917 53.5753C80.1494 53.5753 79.5371 54.0515 79.5371 54.7572C79.5371 55.4629 79.9279 55.7789 80.8571 56.1729C81.6778 56.5236 81.9514 56.74 81.9514 57.1167C81.9514 57.5713 81.6518 57.831 81.0178 57.831C80.5532 57.831 80.1233 57.6449 79.7499 57.3202L79.3634 57.8051C79.8063 58.1601 80.3621 58.3938 81.0004 58.3938C81.8037 58.3938 82.5897 57.9955 82.5897 57.0907C82.5897 56.2595 82.0773 56.0084 81.2002 55.6101H81.2045Z" fill="#004289"/>
<path d="M85.6206 53.5754C85.03 53.5754 84.6001 53.8481 84.3353 54.2378V52.0645H83.6709V58.3073H84.3353V55.5972C84.3353 54.5841 84.839 54.1512 85.486 54.1512C86.2285 54.1512 86.5802 54.5971 86.5802 55.5972V58.3073H87.2446V55.4803C87.2446 54.1512 86.6019 53.5754 85.6206 53.5754Z" fill="#004289"/>
<path d="M89.2159 53.6663H88.5559V58.2986H89.2159V53.6663Z" fill="#004289"/>
<path d="M88.8987 51.8999C88.6296 51.8999 88.417 52.1119 88.417 52.3802C88.417 52.6484 88.6296 52.8474 88.8987 52.8474C89.146 52.8474 89.3587 52.6311 89.3587 52.3802C89.3587 52.1119 89.146 51.8999 88.8987 51.8999Z" fill="#004289"/>
<path d="M92.616 53.5753C91.9908 53.5753 91.5478 53.887 91.2178 54.2377V53.6706H90.5535V60.0044H91.2178V57.7834C91.5435 58.1514 91.943 58.3982 92.5292 58.3982C93.4975 58.3982 94.2791 57.5496 94.2791 55.9131C94.2791 54.2767 93.5409 53.5753 92.616 53.5753ZM92.4727 57.8224C91.9256 57.8224 91.474 57.515 91.2178 57.1254V54.8135C91.5435 54.4109 91.9517 54.1468 92.4467 54.1468C93.1849 54.1468 93.6278 54.7529 93.6278 55.9175C93.6278 57.16 93.2457 57.818 92.4771 57.818L92.4727 57.8224Z" fill="#004289"/>
<path d="M97.792 52.7528H100.736V52.1294H97.1016V58.303H97.792V55.424H99.4898V54.8006H97.792V52.7528Z" fill="#004289"/>
<path d="M102.751 53.5753C101.622 53.5753 100.719 54.4195 100.719 55.9911C100.719 57.5626 101.587 58.3982 102.716 58.3982C103.845 58.3982 104.752 57.528 104.752 55.9564C104.752 54.3849 103.888 53.5753 102.751 53.5753ZM102.733 57.8224C101.926 57.8224 101.392 57.1903 101.392 55.9738C101.392 54.7572 101.93 54.1511 102.733 54.1511C103.537 54.1511 104.088 54.7572 104.088 55.9738C104.088 57.1903 103.541 57.8224 102.733 57.8224Z" fill="#004289"/>
<path d="M108.413 56.3764C108.413 57.3895 107.914 57.8224 107.267 57.8224C106.524 57.8224 106.168 57.3765 106.168 56.3764V53.6663H105.508V56.489C105.508 57.8181 106.155 58.3939 107.136 58.3939C107.714 58.3939 108.148 58.1255 108.413 57.7358V58.303H109.082V53.6706H108.413V56.3807V56.3764Z" fill="#004289"/>
<path d="M112.139 53.5754C111.557 53.5754 111.123 53.8481 110.858 54.2378V53.6706H110.193V58.303H110.858V55.5928C110.858 54.5798 111.361 54.1468 112.008 54.1468C112.751 54.1468 113.103 54.5928 113.103 55.5928V58.303H113.767V55.4759C113.767 54.1468 113.12 53.571 112.139 53.571V53.5754Z" fill="#004289"/>
<path d="M117.758 54.1944C117.428 53.8221 117.032 53.571 116.446 53.571C115.474 53.571 114.696 54.4152 114.696 56.0603C114.696 57.7055 115.43 58.3939 116.359 58.3939C116.989 58.3939 117.428 58.0865 117.753 57.7358V58.3029H118.418V52.0601H117.753V54.1944H117.758ZM117.758 57.1513C117.428 57.554 117.024 57.8181 116.529 57.8181C115.795 57.8181 115.352 57.2119 115.352 56.0474C115.352 54.8005 115.73 54.1425 116.503 54.1425C117.05 54.1425 117.497 54.4498 117.758 54.8395V57.147V57.1513Z" fill="#004289"/>
<path d="M121.231 53.5753C120.632 53.5753 120.085 53.7268 119.677 53.9476L119.92 54.4888C120.302 54.268 120.702 54.1338 121.188 54.1338C121.865 54.1338 122.191 54.4715 122.191 55.1555V55.7053C121.917 55.5538 121.501 55.4369 121.032 55.4369C120.115 55.4369 119.256 55.8785 119.256 56.9219C119.256 58.0388 120.02 58.3982 120.745 58.3982C121.409 58.3982 121.865 58.0908 122.191 57.7401V58.3073H122.855V55.0819C122.855 53.9996 122.23 53.5796 121.227 53.5796L121.231 53.5753ZM122.191 57.1643C121.909 57.5453 121.461 57.857 120.854 57.857C120.293 57.857 119.916 57.5583 119.916 56.8699C119.916 56.2855 120.319 55.9651 121.001 55.9651C121.566 55.9651 121.896 56.0603 122.191 56.2292V57.1643Z" fill="#004289"/>
<path d="M124.975 52.0601H124.306V53.6662H123.733V54.2247H124.306V57.3462C124.306 58.1124 124.618 58.3895 125.196 58.3895C125.543 58.3895 125.791 58.3376 126.047 58.2337L126.095 57.6622C125.882 57.7488 125.708 57.7921 125.439 57.7921C125.087 57.7921 124.975 57.6492 124.975 57.2379V54.2247H126.125V53.6662H124.975V52.0601Z" fill="#004289"/>
<path d="M127.631 51.8999C127.358 51.8999 127.141 52.1119 127.141 52.3802C127.141 52.6484 127.358 52.8474 127.631 52.8474C127.879 52.8474 128.087 52.6311 128.087 52.3802C128.087 52.1119 127.875 51.8999 127.631 51.8999Z" fill="#004289"/>
<path d="M127.949 53.6663H127.284V58.2986H127.949V53.6663Z" fill="#004289"/>
<path d="M130.98 53.5753C129.851 53.5753 128.948 54.4195 128.948 55.9911C128.948 57.5626 129.812 58.3982 130.945 58.3982C132.078 58.3982 132.977 57.528 132.977 55.9564C132.977 54.3849 132.109 53.5753 130.98 53.5753ZM130.962 57.8224C130.159 57.8224 129.616 57.1903 129.616 55.9738C129.616 54.7572 130.159 54.1511 130.962 54.1511C131.766 54.1511 132.317 54.7572 132.317 55.9738C132.317 57.1903 131.77 57.8224 130.962 57.8224Z" fill="#004289"/>
<path d="M135.882 53.5754C135.3 53.5754 134.866 53.8481 134.597 54.2378V53.6706H133.933V58.303H134.597V55.5928C134.597 54.5798 135.101 54.1468 135.748 54.1468C136.49 54.1468 136.846 54.5928 136.846 55.5928V58.303H137.506V55.4759C137.506 54.1468 136.859 53.571 135.882 53.571V53.5754Z" fill="#004289"/>
<path d="M76.1936 30.7902C73.5275 30.7945 71.3303 32.8726 71.3303 35.4788C71.3303 38.0851 73.5275 40.1415 76.1936 40.1501C78.8858 40.1415 81.0613 38.0591 81.0613 35.4788C81.0613 32.8985 78.8858 30.7945 76.1936 30.7902ZM76.1285 38.0115C74.7347 38.0115 73.6838 36.8772 73.6838 35.4788C73.6838 34.0804 74.8085 32.9245 76.198 32.9245C77.5875 32.9245 78.6731 34.0588 78.6731 35.4788C78.6731 36.8988 77.5354 38.0115 76.1329 38.0115H76.1285Z" fill="#004289"/>
<path d="M53.8787 27.5648C54.6213 28.2964 55.4723 28.9372 56.3104 29.3485L56.3972 29.3961L57.8345 27.7033L57.6956 27.6254C56.3321 26.8894 55.2639 25.9586 54.5648 24.7854C53.8701 23.6294 53.514 22.2873 53.514 20.6812V19.1746H50.9434V20.521C50.9434 22.2614 50.5482 23.6294 49.8057 24.8286C48.9763 26.1577 47.7475 27.2271 46.1756 28.2185L46.0366 28.3051L47.5955 29.9156L47.6823 29.868C48.6116 29.3658 49.5973 28.5908 50.4527 27.725C51.1952 26.9673 51.8379 26.1577 52.2287 25.3915C52.6065 26.1448 53.184 26.911 53.8787 27.5691V27.5648Z" fill="#004289"/>
<path d="M51.0953 39.0418H61.8554V31.7123H51.0953V39.0418ZM53.514 33.7817H59.4368V36.9724H53.514V33.7817Z" fill="#004289"/>
<path d="M86.9711 39.0418H99.1381V31.7123H86.9711V39.0418ZM89.3637 33.7817H96.7498V36.9724H89.3637V33.7817Z" fill="#004289"/>
<path d="M61.8989 18.7417H59.5063V30.8724H61.8989V25.5041H64.6997V23.3481H61.8989V18.7417Z" fill="#004289"/>
<path d="M111.505 28.1839C112.291 28.8636 113.19 29.4351 114.036 29.8031L114.123 29.8421L115.417 28.0974L115.278 28.0281C114.045 27.4003 112.947 26.6211 112.156 25.6686C111.353 24.6988 110.875 23.5299 110.875 22.1229V21.7116H114.436V19.6249H104.77V21.7116H108.326V22.2138C108.326 23.4953 107.901 24.6902 107.193 25.7249C106.364 26.9674 105.152 27.9675 103.975 28.6169L103.819 28.6991L105.408 30.3399L105.495 30.2966C106.351 29.8118 107.297 29.0801 108.105 28.2575C108.752 27.5822 109.334 26.8678 109.69 26.1535C110.12 26.8462 110.78 27.5389 111.509 28.1839H111.505Z" fill="#004289"/>
<path d="M128.809 33.8293H137.506V39.0375H139.92V31.7599H128.809V33.8293Z" fill="#004289"/>
<path d="M134.81 25.4867C134.81 24.3395 134.293 23.2831 133.529 22.4779H135.917V20.4128H131.358V18.1399H128.765V20.4128H124.097V22.4779H126.538C125.791 23.2831 125.274 24.3308 125.274 25.4867C125.274 28.0454 127.389 30.1234 130.033 30.1321C132.678 30.1234 134.805 28.0454 134.81 25.4867ZM127.58 25.3915C127.58 23.9758 128.778 22.7766 130.033 22.7766C131.288 22.7766 132.482 23.9801 132.487 25.3915C132.487 26.7855 131.288 27.9891 130.033 27.9934C128.774 27.9891 127.584 26.7855 127.58 25.3915Z" fill="#004289"/>
<path d="M139.92 18.7417H137.532V30.9157H139.92V26.2704H142.73V24.1144H139.92V18.7417Z" fill="#004289"/>
<path d="M119.655 18.7417H117.267V30.9157H119.655V25.5041H122.46V23.3481H119.655V18.7417Z" fill="#004289"/>
<path d="M79.1159 22.3523H75.3555V24.4867H79.1159V31.301H81.5085V18.7417H79.1159V22.3523Z" fill="#004289"/>
<path d="M73.0412 27.8808C73.788 28.6081 74.6608 29.2489 75.4945 29.6818L75.5857 29.7338L77.023 28.041L76.884 27.9631C75.5206 27.2487 74.4741 26.3223 73.7707 25.1663C73.0585 24.0191 72.7025 22.625 72.7025 21.0188V19.1746H70.1275V20.863C70.1275 22.6034 69.7367 23.9671 69.0115 25.1447C68.1865 26.4954 66.9316 27.5734 65.3597 28.5562L65.2251 28.6428L66.7927 30.2576L66.8708 30.2057C67.7957 29.6991 68.7597 28.9675 69.6151 28.1319C70.388 27.3656 71.0307 26.5301 71.4215 25.7291C71.7906 26.4608 72.3551 27.2054 73.0412 27.8851V27.8808Z" fill="#004289"/>
<path d="M114.527 30.7902C111.861 30.7945 109.664 32.8726 109.659 35.4788C109.664 38.0591 111.857 40.1415 114.527 40.1501C117.215 40.1415 119.395 38.0591 119.395 35.4788C119.395 32.8985 117.215 30.7945 114.527 30.7902ZM114.458 38.0115C113.068 38.0115 112.009 36.8772 112.009 35.4788C112.009 34.0804 113.129 32.9245 114.527 32.9245C115.925 32.9245 116.998 34.0588 117.002 35.4788C117.002 36.8728 115.86 38.0115 114.458 38.0115Z" fill="#004289"/>
<path d="M89.8847 25.6989H92.2772V19.5037H85.8203V21.5644H89.8847V25.6989Z" fill="#004289"/>
<path d="M97.0668 25.6989H99.4638V19.5037H93.0068V21.5644H97.0668V25.6989Z" fill="#004289"/>
<path d="M158.054 24.2269H156.043V19.0794H153.781V38.518H156.043V26.5648H158.054V39.0375H160.399V18.7417H158.054V24.2269Z" fill="#004289"/>
<path d="M150.464 26.9154C149.925 25.7422 149.704 24.4304 149.704 22.8199V22.0536H152.418V19.8673H144.532V22.0536H147.333V22.8632C147.333 24.3871 147.133 25.634 146.651 26.7899C146.091 28.119 145.149 29.3139 143.646 30.5954L143.542 30.6906L145.027 32.1582L145.118 32.089C145.865 31.5391 146.647 30.7426 147.298 29.92C147.85 29.2273 148.314 28.5086 148.605 27.8765C148.905 28.4913 149.374 29.197 149.921 29.855C150.555 30.6257 151.271 31.3573 151.957 31.7946L152.048 31.8552L153.299 30.3659L153.199 30.275C151.853 29.1061 151.019 28.0627 150.472 26.9111L150.464 26.9154Z" fill="#004289"/>
<path d="M83.8186 28.5822H91.7606V30.894H94.3529V28.5822H102.421V26.5084H83.8186V28.5822Z" fill="#004289"/>
<path d="M174.02 27.9198H165.935V21.7852H172.092V19.6249H163.512V30.0152H174.02V27.9198Z" fill="#004289"/>
<path d="M169.448 32.5695H167.029V39.0375H178.341V36.9074H169.448V32.5695Z" fill="#004289"/>
<path d="M178.284 24.3611V18.7373H175.896V33.7124H178.284V26.5171H181.111V24.3611H178.284Z" fill="#004289"/>
<path d="M50.7219 12.4771L44.5255 9.91847L50.7219 7.35984L49.619 4.71463L43.4269 7.27325L45.9932 1.09532L43.3357 0L40.7738 6.17794L38.2075 0L35.5501 1.09532L38.1163 7.27325L31.9243 4.71463L30.8257 7.35984L37.0177 9.91847L30.8257 12.4771L31.9243 15.1223L38.1163 12.5637L35.5501 18.7416L38.2075 19.8369L40.7738 13.6633L43.3357 19.8369L45.9932 18.7373L43.4269 12.5637L49.619 15.1223L50.7219 12.4771Z" fill="#009FE3"/>
<path d="M10.6299 29.7121H14.7507V18.7416H0.660034V22.4388H10.6299V29.7121Z" fill="#009FE3"/>
<path d="M26.7049 29.7121H30.8257V18.7416H16.7351V22.4388H26.7049V29.7121Z" fill="#009FE3"/>
<path d="M0 35.3878H26.7049V41.0375H30.8257V31.6906H0V35.3878Z" fill="#009FE3"/>
<path d="M9.96985 58.3029H30.8257V42.9381H9.96985V58.3029ZM14.0906 46.6353H26.7092V54.6056H14.0906V46.6353Z" fill="#009FE3"/>
</g>
<defs>
<clipPath id="clip0_7_272">
<rect width="181.111" height="60" fill="white"/>
</clipPath>
</defs>
</svg>
