<svg width="16" height="17" viewBox="0 0 16 17" fill="none" xmlns="http://www.w3.org/2000/svg">
<path d="M8 0.340454C7.82427 0.340454 7.6498 0.346248 7.47676 0.357668L7.54125 1.37682C7.69284 1.36681 7.8458 1.36173 8 1.36173C8.1542 1.36173 8.30716 1.36681 8.45875 1.37682L8.52324 0.357668C8.3502 0.346248 8.17573 0.340454 8 0.340454Z" fill="#1D1D1D"/>
<path d="M6.43925 0.495955C6.09355 0.5658 5.75582 0.658392 5.42763 0.772142L5.74901 1.73924C6.03585 1.63982 6.33106 1.55888 6.63332 1.49782L6.43925 0.495955Z" fill="#1D1D1D"/>
<path d="M10.5724 0.772142C10.2442 0.658392 9.90645 0.5658 9.56075 0.495955L9.36668 1.49782C9.66894 1.55888 9.96415 1.63982 10.251 1.73924L10.5724 0.772142Z" fill="#1D1D1D"/>
<path d="M12.4453 1.71691C12.1561 1.51921 11.8536 1.34022 11.5394 1.18165L11.0964 2.09727C11.3712 2.23594 11.6359 2.39253 11.889 2.56555L12.4453 1.71691Z" fill="#1D1D1D"/>
<path d="M4.46063 1.18165C4.14639 1.34022 3.84387 1.51921 3.55472 1.71691L4.11104 2.56555C4.36411 2.39253 4.62878 2.23594 4.9036 2.09727L4.46063 1.18165Z" fill="#1D1D1D"/>
<path d="M2.72505 2.36801C2.46271 2.60316 2.21556 2.85556 1.98531 3.12348L2.73689 3.79716C2.93852 3.56254 3.15496 3.3415 3.38469 3.13558L2.72505 2.36801Z" fill="#1D1D1D"/>
<path d="M14.0147 3.12348C13.7844 2.85556 13.5373 2.60316 13.275 2.36801L12.6153 3.13558C12.845 3.3415 13.0615 3.56254 13.2631 3.79716L14.0147 3.12348Z" fill="#1D1D1D"/>
<path d="M15.1763 4.89599C15.0211 4.57506 14.8458 4.26611 14.6522 3.97081L13.8213 4.53897C13.9907 4.79741 14.144 5.06772 14.2798 5.34838L15.1763 4.89599Z" fill="#1D1D1D"/>
<path d="M1.34778 3.97081C1.1542 4.26611 0.978938 4.57507 0.823676 4.89599L1.72021 5.34838C1.856 5.06772 2.00932 4.79741 2.17874 4.53897L1.34778 3.97081Z" fill="#1D1D1D"/>
<path d="M0.422694 5.88357C0.311314 6.21874 0.220651 6.56366 0.152262 6.91671L1.13325 7.11491C1.19304 6.80622 1.2723 6.50473 1.36965 6.21178L0.422694 5.88357Z" fill="#1D1D1D"/>
<path d="M15.8477 6.91671C15.7793 6.56366 15.6887 6.21874 15.5773 5.88357L14.6304 6.21178C14.7277 6.50473 14.807 6.80622 14.8668 7.11491L15.8477 6.91671Z" fill="#1D1D1D"/>
<path d="M0.0168556 7.9763C0.00567344 8.15302 0 8.3312 0 8.51067C0 8.69013 0.00567341 8.86832 0.0168556 9.04504L1.01477 8.97918C1.00498 8.82436 1 8.66815 1 8.51067C1 8.35319 1.00498 8.19697 1.01477 8.04216L0.0168556 7.9763Z" fill="#1D1D1D"/>
<path d="M16 8.51067C16 8.3312 15.9943 8.15302 15.9831 7.9763L14.9852 8.04216C14.995 8.19697 15 8.35319 15 8.51067C15 8.66815 14.995 8.82437 14.9852 8.97918L15.9831 9.04504C15.9943 8.86832 16 8.69013 16 8.51067Z" fill="#1D1D1D"/>
<path d="M0.152261 10.1046C0.220651 10.4577 0.311314 10.8026 0.422694 11.1378L1.36965 10.8096C1.2723 10.5166 1.19304 10.2151 1.13325 9.90643L0.152261 10.1046Z" fill="#1D1D1D"/>
<path d="M15.5773 11.1378C15.6887 10.8026 15.7793 10.4577 15.8477 10.1046L14.8668 9.90643C14.807 10.2151 14.7277 10.5166 14.6304 10.8096L15.5773 11.1378Z" fill="#1D1D1D"/>
<path d="M0.823676 12.1253C0.978938 12.4463 1.1542 12.7552 1.34778 13.0505L2.17874 12.4824C2.00932 12.2239 1.856 11.9536 1.72021 11.673L0.823676 12.1253Z" fill="#1D1D1D"/>
<path d="M14.6522 13.0505C14.8458 12.7552 15.0211 12.4463 15.1763 12.1253L14.2798 11.673C14.144 11.9536 13.9907 12.2239 13.8213 12.4824L14.6522 13.0505Z" fill="#1D1D1D"/>
<path d="M1.98531 13.8978C2.21556 14.1658 2.46271 14.4182 2.72505 14.6533L3.38469 13.8858C3.15496 13.6798 2.93852 13.4588 2.73689 13.2242L1.98531 13.8978Z" fill="#1D1D1D"/>
<path d="M13.275 14.6533C13.5373 14.4182 13.7844 14.1658 14.0147 13.8978L13.2631 13.2242C13.0615 13.4588 12.845 13.6798 12.6153 13.8858L13.275 14.6533Z" fill="#1D1D1D"/>
<path d="M11.5394 15.8397C11.8536 15.6811 12.1561 15.5021 12.4453 15.3044L11.889 14.4558C11.6359 14.6288 11.3712 14.7854 11.0964 14.9241L11.5394 15.8397Z" fill="#1D1D1D"/>
<path d="M3.55472 15.3044C3.84387 15.5021 4.14639 15.6811 4.46063 15.8397L4.9036 14.9241C4.62878 14.7854 4.36411 14.6288 4.11104 14.4558L3.55472 15.3044Z" fill="#1D1D1D"/>
<path d="M5.42763 16.2492C5.75582 16.3629 6.09355 16.4555 6.43925 16.5254L6.63332 15.5235C6.33106 15.4625 6.03585 15.3815 5.74901 15.2821L5.42763 16.2492Z" fill="#1D1D1D"/>
<path d="M9.56075 16.5254C9.90645 16.4555 10.2442 16.3629 10.5724 16.2492L10.251 15.2821C9.96415 15.3815 9.66894 15.4625 9.36668 15.5235L9.56075 16.5254Z" fill="#1D1D1D"/>
<path d="M7.47676 16.6637C7.6498 16.6751 7.82427 16.6809 8 16.6809C8.17573 16.6809 8.3502 16.6751 8.52324 16.6637L8.45875 15.6445C8.30716 15.6545 8.1542 15.6596 8 15.6596C7.8458 15.6596 7.69284 15.6545 7.54125 15.6445L7.47676 16.6637Z" fill="#1D1D1D"/>
<path d="M8.5 4.9362C8.5 4.65418 8.27614 4.42556 8 4.42556C7.72386 4.42556 7.5 4.65418 7.5 4.9362V8.00003H4.5C4.22386 8.00003 4 8.22865 4 8.51067C4 8.79268 4.22386 9.02131 4.5 9.02131H7.5V12.0851C7.5 12.3672 7.72386 12.5958 8 12.5958C8.27614 12.5958 8.5 12.3672 8.5 12.0851V9.02131H11.5C11.7761 9.02131 12 8.79268 12 8.51067C12 8.22865 11.7761 8.00003 11.5 8.00003H8.5V4.9362Z" fill="#1D1D1D"/>
</svg>
