<svg width="45" height="40" viewBox="0 0 45 40" fill="none" xmlns="http://www.w3.org/2000/svg">
<path fill-rule="evenodd" clip-rule="evenodd" d="M8.14447 0C7.60823 0 7.17625 0.413132 7.17625 0.914792C7.17625 1.41645 7.60823 1.82958 8.14447 1.82958H9.1127V11.7152L0.428485 25.3043C-0.748277 27.1487 0.637026 29.5094 2.90118 29.5094H26.8982C29.1623 29.5094 30.5477 27.1487 29.3709 25.3043L20.6867 11.73V1.84434H21.6549C22.1912 1.84434 22.6231 1.43121 22.6231 0.929546C22.6231 0.427886 22.1912 0.0147547 21.6549 0.0147547H8.14447V0Z" fill="#010101"/>
<path d="M30.1011 38.1557C31.2332 38.1557 31.3226 37.8458 31.3226 37.8311C31.4716 37.5655 31.5609 36.9753 31.4567 35.7654C31.4269 35.4556 31.3822 35.0867 31.3375 34.6736C31.2481 33.8178 31.129 32.8145 31.1141 31.9735C31.0992 30.675 31.263 29.0078 32.4249 27.7093C33.1101 26.9421 34.0038 26.647 34.7933 26.5732C35.553 26.4995 36.3127 26.6175 36.9532 26.765C37.5937 26.9126 38.264 27.1044 38.8598 27.2815H38.9194C39.5599 27.488 40.1409 27.6651 40.692 27.7831C41.9135 28.0635 42.3752 27.9307 42.5391 27.8274C42.6136 27.7831 43.1349 27.37 43.1349 25.2306C43.1349 18.104 37.2958 12.3202 30.1011 12.3202C22.9065 12.3202 17.0674 18.104 17.0674 25.2306C17.0674 32.3571 22.9065 38.1409 30.1011 38.1409V38.1557Z" fill="white"/>
<path fill-rule="evenodd" clip-rule="evenodd" d="M18.7504 3.6887H16.814C16.2777 3.6887 15.8458 4.10183 15.8458 4.60349C15.8458 5.10515 16.2777 5.51828 16.814 5.51828H18.7504V7.36262H16.814C16.2777 7.36262 15.8458 7.77575 15.8458 8.27741C15.8458 8.77907 16.2777 9.1922 16.814 9.1922H18.7504V11.0365H16.814C16.2777 11.0365 15.8458 11.4497 15.8458 11.9513C15.8458 12.453 16.2777 12.8661 16.814 12.8661H19.1675L20.3443 14.7105H18.7355C18.1993 14.7105 17.7673 15.1236 17.7673 15.6253C17.7673 16.1269 18.1993 16.54 18.7355 16.54H21.521L22.6978 18.3844H20.672C20.1357 18.3844 19.7038 18.7975 19.7038 19.2992C19.7038 19.8008 20.1357 20.214 20.672 20.214H23.8895L25.0662 22.0583H22.6084C22.0722 22.0583 21.6402 22.4714 21.6402 22.9731C21.6402 23.4748 22.0722 23.8879 22.6084 23.8879H26.243L27.7028 26.1749C28.0901 26.7946 27.6283 27.5766 26.8835 27.5766H2.90138C2.1417 27.5766 1.67993 26.7946 2.08212 26.1749L10.9004 12.3792C10.9898 12.2317 11.0493 12.0694 11.0493 11.8923V1.84436H18.7653V3.6887H18.7504Z" fill="white"/>
<path d="M30.1009 19.7123C31.6501 19.7123 32.9013 18.4729 32.9013 16.9384C32.9013 15.4039 31.6501 14.1645 30.1009 14.1645C28.5518 14.1645 27.3005 15.4039 27.3005 16.9384C27.3005 18.4729 28.5518 19.7123 30.1009 19.7123Z" fill="#010101"/>
<path d="M37.5489 25.2453C39.0981 25.2453 40.3493 24.0059 40.3493 22.4714C40.3493 20.9369 39.0981 19.6975 37.5489 19.6975C35.9998 19.6975 34.7485 20.9369 34.7485 22.4714C34.7485 24.0059 35.9998 25.2453 37.5489 25.2453Z" fill="#010101"/>
<path d="M25.4536 23.401C25.4536 24.9354 24.2023 26.1748 22.6532 26.1748C21.104 26.1748 19.8528 24.9354 19.8528 23.401C19.8528 21.8665 21.104 20.6271 22.6532 20.6271C24.2023 20.6271 25.4536 21.8665 25.4536 23.401Z" fill="#010101"/>
<path d="M26.3771 34.467C27.9262 34.467 29.1775 33.2276 29.1775 31.6931C29.1775 30.1586 27.9262 28.9192 26.3771 28.9192C24.8279 28.9192 23.5767 30.1586 23.5767 31.6931C23.5767 33.2276 24.8279 34.467 26.3771 34.467Z" fill="#010101"/>
<path d="M44.9968 25.2453C44.9968 31.0587 41.5261 30.0111 38.3533 29.0668C36.4615 28.5061 34.6889 27.9602 33.825 28.934C32.7078 30.1881 32.9461 32.2833 33.1696 34.3194C33.4973 37.2261 33.8101 40 30.1011 40C21.8786 40 15.2053 33.3899 15.2053 25.2453C15.2053 17.1007 21.8786 10.4906 30.1011 10.4906C38.3235 10.4906 44.9968 17.1007 44.9968 25.2453ZM30.1011 38.1557C31.2331 38.1557 31.3225 37.8458 31.3225 37.8311C31.4715 37.5655 31.5608 36.9753 31.4566 35.7654C31.4268 35.4556 31.3821 35.0867 31.3374 34.6736C31.248 33.8178 31.1289 32.8145 31.114 31.9734C31.0991 30.675 31.2629 29.0078 32.4248 27.7093C33.11 26.9421 34.0037 26.647 34.7932 26.5732C35.5529 26.4995 36.3126 26.6175 36.9531 26.765C37.5936 26.9126 38.2639 27.1044 38.8597 27.2815H38.9193C39.5598 27.488 40.1408 27.6651 40.6919 27.7831C41.9134 28.0634 42.3751 27.9307 42.539 27.8274C42.6135 27.7831 43.1348 27.37 43.1348 25.2305C43.1348 18.104 37.2957 12.3202 30.1011 12.3202C22.9064 12.3202 17.0673 18.104 17.0673 25.2305C17.0673 32.3571 22.9064 38.1409 30.1011 38.1409V38.1557Z" fill="#010101"/>
<path d="M44.9968 25.2453C44.9968 31.0587 41.5261 30.0111 38.3533 29.0668C36.4615 28.5061 34.6889 27.9602 33.825 28.934C32.7078 30.1881 32.9461 32.2833 33.1696 34.3194C33.4973 37.2261 33.8101 40 30.1011 40C21.8786 40 15.2053 33.3899 15.2053 25.2453C15.2053 17.1007 21.8786 10.4906 30.1011 10.4906C38.3235 10.4906 44.9968 17.1007 44.9968 25.2453ZM30.1011 38.1557C31.2331 38.1557 31.3225 37.8458 31.3225 37.8311C31.4715 37.5655 31.5608 36.9753 31.4566 35.7654C31.4268 35.4556 31.3821 35.0867 31.3374 34.6736C31.248 33.8178 31.1289 32.8145 31.114 31.9734C31.0991 30.675 31.2629 29.0078 32.4248 27.7093C33.11 26.9421 34.0037 26.647 34.7932 26.5732C35.5529 26.4995 36.3126 26.6175 36.9531 26.765C37.5936 26.9126 38.2639 27.1044 38.8597 27.2815H38.9193C39.5598 27.488 40.1408 27.6651 40.6919 27.7831C41.9134 28.0634 42.3751 27.9307 42.539 27.8274C42.6135 27.7831 43.1348 27.37 43.1348 25.2305C43.1348 18.104 37.2957 12.3202 30.1011 12.3202C22.9064 12.3202 17.0673 18.104 17.0673 25.2305C17.0673 32.3571 22.9064 38.1409 30.1011 38.1409V38.1557Z" fill="#010101"/>
</svg>
