<svg width="43" height="40" viewBox="0 0 43 40" fill="none" xmlns="http://www.w3.org/2000/svg">
<path d="M1.32531 16.1139H6.31921V34.825H3.99513C3.26525 34.825 2.66982 35.4236 2.66982 36.1574C2.66982 36.8911 3.26525 37.4897 3.99513 37.4897H38.5683C39.2982 37.4897 39.8936 36.8911 39.8936 36.1574C39.8936 35.4236 39.2982 34.825 38.5683 34.825H36.2442V16.1139H41.2382C41.8336 16.1139 42.333 15.7277 42.5058 15.1678C42.6787 14.6078 42.4674 13.9899 41.968 13.6616L21.7811 0.144823C21.4738 -0.0482742 21.0897 -0.0482742 20.7823 0.144823L0.595427 13.6809C0.115244 14.0092 -0.115244 14.6078 0.057622 15.1871C0.230488 15.747 0.749086 16.1332 1.32531 16.1332V16.1139ZM28.907 16.1139H34.8997V34.825H28.907V16.1139ZM21.8195 16.1139H27.8122V34.825H21.8195V16.1139ZM14.732 16.1139H20.7247V34.825H14.732V16.1139ZM7.64452 16.1139H13.6372V34.825H7.64452V16.1139Z" fill="#010101"/>
<path d="M41.2189 38.069H1.32531C0.595427 38.069 0 38.4938 0 39.0345C0 39.5752 0.595427 40 1.32531 40H41.2189C41.9488 40 42.5443 39.5752 42.5443 39.0345C42.5443 38.4938 41.9488 38.069 41.2189 38.069Z" fill="#010101"/>
</svg>
