<svg width="40" height="40" viewBox="0 0 40 40" fill="none" xmlns="http://www.w3.org/2000/svg">
<mask id="mask0_17_8" style="mask-type:alpha" maskUnits="userSpaceOnUse" x="0" y="0" width="40" height="40">
<rect width="40" height="40" rx="7" fill="#D9D9D9"/>
</mask>
<g mask="url(#mask0_17_8)">
<path d="M10.5078 26.8259C10.5078 25.9355 11.2296 25.2137 12.12 25.2137H27.8841C28.7729 25.2137 29.4934 25.9342 29.4934 26.823C29.4934 27.1143 29.5909 27.3566 29.7858 27.5499C29.9808 27.7431 30.2268 27.8398 30.5237 27.8398C30.8237 27.8398 31.0714 27.7425 31.2667 27.548C31.462 27.3535 31.5596 27.1082 31.5596 26.812V21.3355C31.5596 20.8683 31.41 20.3752 31.1109 19.8563C30.5801 18.9357 29.9485 17.9842 29.9485 16.9216V15.7843C29.9485 14.9609 29.6889 14.2896 29.1696 13.7704C28.6504 13.2512 27.9791 12.9916 27.1558 12.9916H21.9037C21.4699 12.9916 21.0929 13.0669 20.7728 13.2175C20.3078 13.4363 19.6532 13.4343 19.1873 13.2175C18.8636 13.0669 18.4848 12.9916 18.0511 12.9916H12.8438C12.0205 12.9916 11.3492 13.2512 10.83 13.7704C10.3107 14.2896 10.0511 14.9609 10.0511 15.7843V16.9216C10.0511 17.9842 9.41948 18.9357 8.88871 19.8563C8.58957 20.3752 8.44 20.8683 8.44 21.3355V26.8165C8.44 27.1087 8.5381 27.3523 8.7343 27.5473C8.93049 27.7423 9.17799 27.8398 9.4768 27.8398C9.7756 27.8398 10.0221 27.7438 10.2164 27.552C10.4106 27.3601 10.5078 27.1181 10.5078 26.8259ZM12.2071 23.4295C11.2677 23.4295 10.5062 22.668 10.5062 21.7287C10.5062 21.2337 10.6602 20.8321 10.9683 20.5241C11.2763 20.216 11.6737 20.062 12.1605 20.062H27.8391C28.3259 20.062 28.7233 20.216 29.0313 20.5241C29.3394 20.8321 29.4934 21.2337 29.4934 21.7287C29.4934 22.668 28.7319 23.4295 27.7925 23.4295H12.2071ZM14.8246 18.2779C13.1736 18.2779 11.8353 16.9395 11.8353 15.2886C11.8353 15.1461 11.8851 15.025 11.9848 14.9253C12.0846 14.8256 12.2057 14.7757 12.3481 14.7757H18.6002C18.7427 14.7757 18.8637 14.8256 18.9635 14.9253C19.0632 15.025 19.113 15.1461 19.113 15.2886C19.113 16.9395 17.7747 18.2779 16.1237 18.2779H14.8246ZM23.8865 18.2779C22.2356 18.2779 20.8972 16.9395 20.8972 15.2886C20.8972 15.1461 20.9453 15.025 21.0415 14.9253C21.1376 14.8256 21.2605 14.7757 21.4101 14.7757H27.6515C27.7939 14.7757 27.915 14.8256 28.0148 14.9253C28.1145 15.025 28.1643 15.1461 28.1643 15.2886C28.1643 16.9395 26.826 18.2779 25.175 18.2779H23.8865ZM6.77334 35.8333C6.057 35.8333 5.44345 35.5779 4.93267 35.0672C4.42189 34.5564 4.1665 33.9428 4.1665 33.2265V6.77358C4.1665 6.05725 4.42189 5.44369 4.93267 4.93291C5.44345 4.42214 6.057 4.16675 6.77334 4.16675H33.2263C33.9426 4.16675 34.5561 4.42214 35.0669 4.93291C35.5777 5.44369 35.8331 6.05725 35.8331 6.77358V33.2265C35.8331 33.9428 35.5777 34.5564 35.0669 35.0672C34.5561 35.5779 33.9426 35.8333 33.2263 35.8333H6.77334ZM6.77334 33.7394H33.2263C33.3545 33.7394 33.472 33.6859 33.5788 33.5791C33.6857 33.4722 33.7391 33.3547 33.7391 33.2265V6.77358C33.7391 6.64536 33.6857 6.52783 33.5788 6.421C33.472 6.31414 33.3545 6.26071 33.2263 6.26071H6.77334C6.64512 6.26071 6.52759 6.31414 6.42075 6.421C6.31389 6.52783 6.26046 6.64536 6.26046 6.77358V33.2265C6.26046 33.3547 6.31389 33.4722 6.42075 33.5791C6.52759 33.6859 6.64512 33.7394 6.77334 33.7394Z" fill="white" fill-opacity="0.8"/>
</g>
</svg>
