<svg width="32" height="32" viewBox="0 0 32 32" fill="none" xmlns="http://www.w3.org/2000/svg">
<path d="M13.1335 12.844C13.8884 12.844 14.5288 12.5799 15.0548 12.0517C15.5808 11.5234 15.8438 10.8819 15.8438 10.127C15.8438 9.37209 15.5797 8.73163 15.0515 8.20563C14.5233 7.67965 13.8817 7.41667 13.1268 7.41667C12.3719 7.41667 11.7315 7.68076 11.2055 8.20896C10.6795 8.73715 10.4165 9.37871 10.4165 10.1336C10.4165 10.8885 10.6806 11.529 11.2088 12.055C11.737 12.581 12.3785 12.844 13.1335 12.844ZM13.16 19.5106C14.165 19.5106 15.1347 19.3136 16.069 18.9197C16.1009 18.9062 16.1326 18.8926 16.1643 18.8788C17.5137 18.2885 17.2848 16.4943 15.862 16.1138C14.9553 15.8713 14.05 15.75 13.1462 15.75C12.1462 15.75 11.1795 15.8739 10.2461 16.1218C8.87134 16.4868 8.69281 18.2014 9.98185 18.8028C10.066 18.842 10.1509 18.8798 10.2367 18.9163C11.1699 19.3125 12.1444 19.5106 13.16 19.5106ZM13.1268 26.1773C9.58845 26.1773 6.58546 24.9435 4.11788 22.4759C1.6503 20.0083 0.416504 17.0042 0.416504 13.4636C0.416504 9.92304 1.6503 6.91896 4.11788 4.45138C6.58546 1.98379 9.58955 0.75 13.1301 0.75C16.6707 0.75 19.6748 1.98379 22.1424 4.45138C24.61 6.91896 25.8438 9.92195 25.8438 13.4603C25.8438 15.0309 25.5754 16.5026 25.0388 17.8755C24.1238 20.2161 24.1696 23.0288 25.9466 24.8058L30.8331 29.6923C31.0447 29.9039 31.1478 30.1496 31.1424 30.4295C31.1371 30.7094 31.034 30.9551 30.8331 31.1666C30.6216 31.3782 30.3732 31.484 30.088 31.484C29.8027 31.484 29.5543 31.3782 29.3428 31.1666L24.4512 26.275C22.6771 24.5009 19.8695 24.4557 17.534 25.3723C16.1665 25.9089 14.6974 26.1773 13.1268 26.1773ZM13.144 24.0833C16.0792 24.0833 18.5806 23.0449 20.6483 20.9679C22.716 18.891 23.7498 16.3849 23.7498 13.4498C23.7498 10.5146 22.7168 8.01313 20.6506 5.94546C18.5845 3.87779 16.0777 2.84396 13.1301 2.84396C10.2042 2.84396 7.70278 3.87701 5.62584 5.94313C3.54892 8.00926 2.51046 10.5161 2.51046 13.4636C2.51046 16.3896 3.54892 18.891 5.62584 20.9679C7.70278 23.0449 10.2089 24.0833 13.144 24.0833Z" fill="white"/>
</svg>
