<svg width="40" height="40" viewBox="0 0 40 40" fill="none" xmlns="http://www.w3.org/2000/svg">
<mask id="mask0_17_11" style="mask-type:alpha" maskUnits="userSpaceOnUse" x="0" y="0" width="40" height="40">
<rect width="40" height="40" rx="7" fill="#D9D9D9"/>
</mask>
<g mask="url(#mask0_17_11)">
<path opacity="0.8" d="M10.6027 30.7542C9.46742 30.7542 8.54708 31.6745 8.54708 32.8098C8.54708 33.1867 8.41423 33.5071 8.14854 33.7709C7.88284 34.0347 7.5602 34.1666 7.18062 34.1666C6.80104 34.1666 6.48162 34.0347 6.22237 33.7709C5.96312 33.5071 5.8335 33.1867 5.8335 32.8098V20.6923C5.8335 20.5482 5.84187 20.4041 5.85862 20.26C5.87537 20.1159 5.91008 19.9754 5.96275 19.8386L9.00979 10.9274C9.17959 10.3984 9.49227 9.97275 9.94783 9.65033C10.4034 9.32792 10.9098 9.16671 11.467 9.16671H14.5301C15.3857 9.16671 16.0792 8.47314 16.0792 7.61758C16.0792 7.25525 16.2041 6.94743 16.454 6.69412C16.7038 6.44085 17.0134 6.31421 17.3827 6.31421H22.7266C23.0959 6.31421 23.4054 6.44085 23.6552 6.69412C23.9051 6.94743 24.03 7.25525 24.03 7.61758C24.03 8.47314 24.7236 9.16671 25.5791 9.16671H28.5332C29.0905 9.16671 29.5969 9.32792 30.0524 9.65033C30.508 9.97275 30.8206 10.3984 30.9905 10.9274L34.0375 19.8386C34.0902 19.9754 34.1249 20.1159 34.1416 20.26C34.1584 20.4041 34.1667 20.5482 34.1667 20.6923V32.8098C34.1667 33.1867 34.0339 33.5071 33.7682 33.7709C33.5025 34.0347 33.1798 34.1666 32.8002 34.1666C32.4207 34.1666 32.0984 34.033 31.8335 33.7659C31.5686 33.4987 31.4361 33.1744 31.4361 32.7928C31.4361 31.6669 30.5234 30.7542 29.3975 30.7542H10.6027ZM10.9937 11.5972C9.89551 14.8148 12.2871 18.1582 15.687 18.1582H24.3133C27.7131 18.1582 30.1047 14.8148 29.0065 11.5972C28.9638 11.4904 28.8979 11.4076 28.8089 11.3488C28.7198 11.2901 28.6201 11.2607 28.5097 11.2607H11.4905C11.3801 11.2607 11.2804 11.2901 11.1914 11.3488C11.1023 11.4076 11.0365 11.4904 10.9937 11.5972ZM12.1493 26.5342C12.7315 26.5342 13.2204 26.3328 13.616 25.93C14.0117 25.5272 14.2095 25.0404 14.2095 24.4695C14.2095 23.8833 14.0081 23.3881 13.6053 22.9842C13.2025 22.5802 12.7168 22.3783 12.1483 22.3783C11.5643 22.3783 11.0692 22.5808 10.663 22.986C10.2567 23.3912 10.0535 23.8861 10.0535 24.4705C10.0535 25.055 10.2573 25.545 10.6648 25.9407C11.0723 26.3363 11.5672 26.5342 12.1493 26.5342ZM27.8766 26.5342C28.4584 26.5342 28.9518 26.3328 29.3566 25.93C29.7614 25.5272 29.9638 25.0404 29.9638 24.4695C29.9638 23.8833 29.7608 23.3881 29.3547 22.9842C28.9487 22.5802 28.4556 22.3783 27.8756 22.3783C27.2955 22.3783 26.8059 22.5808 26.4067 22.986C26.0074 23.3912 25.8078 23.8861 25.8078 24.4705C25.8078 25.055 26.011 25.545 26.4174 25.9407C26.8237 26.3363 27.3101 26.5342 27.8766 26.5342ZM7.92745 24.4562C7.92745 26.778 9.80967 28.6603 12.1315 28.6603H27.8687C30.1906 28.6603 32.0728 26.778 32.0728 24.4562C32.0728 22.1344 30.1906 20.2522 27.8687 20.2522H12.1315C9.80967 20.2522 7.92745 22.1344 7.92745 24.4562Z" fill="white"/>
</g>
</svg>
