<svg width="8" height="13" viewBox="0 0 8 13" fill="none" xmlns="http://www.w3.org/2000/svg">
<path d="M8 6.50577C8 6.6428 7.97433 6.76921 7.92298 6.88501C7.87162 7.00083 7.78245 7.11419 7.65548 7.22509L1.26329 12.8085C1.12698 12.9275 0.959852 12.9911 0.761902 12.9993C0.563952 13.0075 0.387475 12.9439 0.23247 12.8085C0.0774893 12.6731 -2.08501e-08 12.523 -2.80511e-08 12.3583C-3.52521e-08 12.1935 0.0774893 12.0435 0.23247 11.9081L6.41735 6.50577L0.232469 1.10348C0.0961573 0.984417 0.0233281 0.838434 0.0139817 0.665531C0.00465951 0.492628 0.0774887 0.338481 0.232469 0.203089C0.387474 0.0676966 0.559278 9.29227e-07 0.747882 9.20983e-07C0.936509 9.12738e-07 1.10831 0.0676965 1.26329 0.203089L7.65548 5.78646C7.78245 5.89736 7.87162 6.01072 7.92298 6.12654C7.97433 6.24234 8 6.36875 8 6.50577Z" fill="#666666"/>
</svg>
