<svg width="36" height="36" viewBox="0 0 36 36" fill="none" xmlns="http://www.w3.org/2000/svg">
<g opacity="0.8">
<mask id="mask0_17_2" style="mask-type:alpha" maskUnits="userSpaceOnUse" x="0" y="0" width="36" height="36">
<rect width="35.8621" height="35.8621" rx="7" fill="#D9D9D9"/>
</mask>
<g mask="url(#mask0_17_2)">
<path d="M7.17639 31.0058C6.53271 31.0058 5.98227 30.7772 5.52505 30.32C5.06783 29.8628 4.83923 29.3123 4.83923 28.6687V18.8273C4.83923 17.2624 3.93738 15.83 3.46616 14.3377C3.20977 13.5258 3.21791 12.6865 3.49059 11.82L5.01738 6.89857C5.21661 6.25362 5.55218 5.75203 6.02409 5.39378C6.49598 5.03556 7.05504 4.85645 7.70128 4.85645H28.0518C28.7185 4.85645 29.2948 5.03364 29.7808 5.38803C30.2667 5.74244 30.6087 6.23638 30.8066 6.86984L32.3871 11.82C32.6597 12.6865 32.6637 13.528 32.399 14.3444C31.9113 15.8489 31.0135 17.2979 31.0135 18.8795V28.6687C31.0135 29.3123 30.7849 29.8628 30.3277 30.32C29.8705 30.7772 29.32 31.0058 28.6764 31.0058H7.17639ZM21.2568 15.4982C22.0998 15.4982 22.7621 15.2445 23.2439 14.7372C23.7257 14.2298 23.9242 13.6661 23.8393 13.0461L23.1544 8.56C22.9941 7.50966 22.0908 6.73379 21.0283 6.73379C19.8404 6.73379 18.8775 7.69672 18.8775 8.88456V12.9445C18.8775 13.6304 19.1071 14.2274 19.5662 14.7357C20.0253 15.2441 20.5889 15.4982 21.2568 15.4982ZM14.4063 15.4982C15.1515 15.4982 15.7701 15.2482 16.2621 14.7482C16.7542 14.2482 17.0002 13.647 17.0002 12.9445V8.88837C17.0002 7.69843 16.0355 6.73379 14.8456 6.73379C13.7801 6.73379 12.8746 7.51259 12.7152 8.56609L12.0288 13.1036C11.9484 13.661 12.1361 14.1995 12.592 14.719C13.048 15.2385 13.6527 15.4982 14.4063 15.4982ZM7.68597 15.4982C8.3073 15.4982 8.84402 15.2841 9.29613 14.8559C9.74825 14.4278 10.018 13.8979 10.1055 13.2664L10.5423 10.2637C10.813 8.4023 9.36966 6.73379 7.48865 6.73379C7.3258 6.73379 7.19488 6.7697 7.09588 6.84152C6.99692 6.91337 6.92667 7.02114 6.88516 7.16484L5.33726 12.2491C5.09268 13.0161 5.19485 13.7493 5.64377 14.4489C6.09269 15.1484 6.77343 15.4982 7.68597 15.4982ZM28.1668 15.4982C29.0123 15.4982 29.6825 15.1622 30.1774 14.49C30.6722 13.818 30.7901 13.071 30.5308 12.2491L28.9484 7.13612C28.9069 6.99242 28.8367 6.88944 28.7377 6.82718C28.6387 6.76492 28.5078 6.73379 28.3449 6.73379C26.4821 6.73379 25.0527 8.38618 25.3208 10.2296L25.7625 13.2664C25.8564 13.8979 26.1278 14.4278 26.5767 14.8559C27.0256 15.2841 27.5557 15.4982 28.1668 15.4982ZM7.17639 29.1285H28.6764C28.8041 29.1285 28.9126 29.0854 29.002 28.9992C29.0915 28.9129 29.1362 28.8028 29.1362 28.6687V17.6849C29.1362 17.4905 28.9171 17.3385 28.7233 17.354C28.5432 17.3683 28.3577 17.3755 28.1668 17.3755C27.5212 17.3755 26.9313 17.2446 26.3972 16.9828C26.368 16.9685 26.3389 16.9538 26.3099 16.9386C25.4241 16.4759 24.255 16.4783 23.3641 16.9311C22.7811 17.2274 22.1042 17.3755 21.3335 17.3755C20.6623 17.3755 20.0579 17.2515 19.5203 17.0034C19.5104 16.9989 19.5006 16.9943 19.4907 16.9896C18.5428 16.5433 17.3525 16.5675 16.3928 16.9881C15.8034 17.2464 15.1904 17.3755 14.5538 17.3755C13.8526 17.3755 13.2045 17.2483 12.6093 16.9939C11.6268 16.5737 10.4168 16.4571 9.45777 16.9284C9.38043 16.9664 9.30403 17.0009 9.22856 17.0317C8.66694 17.2609 8.15275 17.3755 7.68597 17.3755C7.50524 17.3755 7.32898 17.3683 7.15719 17.354C6.9415 17.336 6.71657 17.4947 6.71657 17.7111V28.6687C6.71657 28.8028 6.76127 28.9129 6.85068 28.9992C6.94008 29.0854 7.04865 29.1285 7.17639 29.1285Z" fill="white"/>
</g>
</g>
</svg>
