<?xml version="1.0" encoding="UTF-8"?>
<svg id="_레이어_2" data-name="레이어 2" xmlns="http://www.w3.org/2000/svg" xmlns:xlink="http://www.w3.org/1999/xlink" viewBox="0 0 199 45.15">
  <defs>
    <style>
      .cls-1 {
        clip-path: url(#clippath);
      }

      .cls-2 {
        fill: none;
      }

      .cls-2, .cls-3 {
        stroke-width: 0px;
      }

      .cls-3 {
        fill: #fff;
      }
    </style>
    <clipPath id="clippath">
      <rect class="cls-2" width="199" height="45.15"/>
    </clipPath>
  </defs>
  <g id="_레이어_1-2" data-name="레이어 1">
    <g class="cls-1">
      <g id="_그룹_3" data-name="그룹 3">
        <path id="_패스_1" data-name="패스 1" class="cls-3" d="M73.58,6.3h-16.73v.94c0,.38.02.75.07,1.12.03.24.14.46.3.64.18.17.41.27.65.3.37.05.74.08,1.11.07h14.59v2.45h-8.36v1.2h10.64v2.5h-23.9v-2.5h10.64v-1.2h-3.58c-.81.01-1.62-.04-2.42-.16-.54-.07-1.05-.29-1.46-.65-.38-.38-.63-.88-.71-1.41-.14-.8-.2-1.61-.18-2.42v-3.36h19.34v2.47ZM59.21,24.31c-.77,0-1.55-.04-2.32-.13-.58-.06-1.13-.24-1.64-.53-.43-.26-.78-.66-.98-1.12-.24-.61-.35-1.26-.33-1.92-.03-.66.09-1.31.33-1.92.2-.47.55-.86.98-1.12.5-.29,1.06-.47,1.64-.53.77-.09,1.54-.13,2.32-.13h14.68v2.45h-14.57c-.51,0-.94,0-1.29.01-.29,0-.58.04-.85.13-.2.06-.37.19-.47.37-.19.47-.19,1.01,0,1.48.1.18.27.31.47.37.28.09.56.13.85.13.35.01.78.01,1.29.01h9.19c.49,0,.9-.01,1.22-.04.26-.01.52-.08.75-.2.18-.1.31-.26.38-.45.09-.27.12-.55.11-.84v-.45h2.62v.45c.02.7-.07,1.4-.29,2.06-.17.49-.48.91-.9,1.21-.47.31-1,.5-1.55.57-.74.1-1.5.15-2.25.14h-9.41Z"/>
        <path id="_패스_2" data-name="패스 2" class="cls-3" d="M76.85,11.88h23.9v2.5h-10.64v1.11h8.36v5.6h-16.73v.23c0,.28.1.46.3.53.32.08.65.11.98.1h15.73v2.39h-15.7c-.67.02-1.34-.06-1.99-.21-.44-.11-.85-.32-1.19-.61-.28-.26-.48-.6-.58-.97-.11-.42-.16-.85-.16-1.28v-2.56h16.73v-.83h-16.73v-2.38h8.36v-1.11h-10.64v-2.5ZM84.33,11.25c-.89.02-1.77-.05-2.64-.21-.59-.1-1.14-.35-1.59-.74-.39-.37-.66-.86-.77-1.39-.15-.71-.21-1.43-.2-2.15v-2.93h19.34v2.93c.01.72-.05,1.44-.2,2.15-.11.53-.37,1.02-.77,1.39-.45.39-1,.64-1.59.74-.87.16-1.76.23-2.65.21h-8.93ZM93.29,8.8c.43,0,.87-.03,1.29-.1.29-.05.55-.16.78-.34.19-.16.32-.37.38-.61.07-.31.11-.62.1-.94v-.51h-14.11v.51c0,.32.03.63.1.94.06.24.2.45.38.61.23.18.5.3.78.34.43.07.86.11,1.29.1h8.99Z"/>
        <path id="_패스_3" data-name="패스 3" class="cls-3" d="M101.74,20.98h10.64v-4.38h2.62v4.38h10.64v2.5h-23.9v-2.5ZM123.36,3.83v6.91c.02.85-.05,1.71-.2,2.55-.09.58-.36,1.11-.77,1.54-.44.4-.99.67-1.58.77-.88.16-1.77.23-2.66.21h-8.93c-.89.02-1.78-.05-2.66-.21-.59-.1-1.14-.37-1.58-.77-.41-.42-.67-.96-.77-1.54-.15-.84-.22-1.69-.2-2.55V3.83h2.62v3.47h14.11v-3.47h2.62ZM118.19,13.36c.46.01.92-.03,1.37-.11.29-.05.56-.19.77-.41.18-.23.3-.5.34-.78.06-.41.09-.83.09-1.25v-1.05h-14.11v1.05c0,.42.02.84.08,1.25.04.29.16.56.34.78.2.22.47.36.77.41.45.09.91.12,1.36.11h8.99Z"/>
        <path id="_패스_4" data-name="패스 4" class="cls-3" d="M126.63,20.98h10.64v-4.38h2.62v4.38h10.64v2.5h-23.89v-2.5ZM139.89,2.4v1.28h8.96v2.36h-20.51v-2.36h8.93v-1.28h2.62ZM133.46,15.8c-1.26.12-2.52-.28-3.49-1.11-.76-.87-1.14-2.01-1.07-3.16-.08-1.15.31-2.29,1.07-3.16.96-.83,2.22-1.23,3.49-1.11h14.76v2.5h-14.59c-.37,0-.74.03-1.1.11-.24.06-.46.17-.64.34-.15.15-.26.34-.3.56-.1.5-.1,1.01,0,1.51.04.21.15.4.3.56.18.17.4.29.64.34.36.09.73.12,1.1.11h9.36c.65.08,1.31-.1,1.85-.48.36-.44.54-1,.48-1.56v-.91h2.62v.91c.13,1.29-.31,2.57-1.21,3.5-1.04.77-2.33,1.15-3.62,1.05h-9.65Z"/>
        <path id="_패스_5" data-name="패스 5" class="cls-3" d="M157.98,6.33c-.18,0-.35.03-.51.1-.15.08-.27.21-.35.36-.12.22-.21.45-.27.7-.08.29-.17.67-.29,1.12l-1.56,6.63h-2.65l1.79-7.2c.15-.64.33-1.26.54-1.88.16-.47.4-.92.71-1.31.27-.34.63-.6,1.02-.77.48-.19.99-.27,1.51-.26h1.08c.52-.02,1.03.07,1.51.26.4.17.75.43,1.02.77.31.39.55.83.71,1.31.21.62.39,1.24.54,1.88l1.79,7.2h-2.65l-1.56-6.63c-.12-.62-.31-1.22-.55-1.8-.17-.32-.51-.5-.87-.47h-.97ZM174.39,24.34h-16.13c-.78.02-1.56-.06-2.32-.26-.51-.13-.96-.41-1.31-.8-.31-.41-.51-.89-.58-1.39-.1-.68-.15-1.36-.14-2.05v-3.21h2.62v3.07c0,.36.01.71.06,1.07.03.24.1.47.23.67.12.18.3.3.51.36.3.07.6.11.91.1h16.16v2.45ZM164.47,8.09h2.48V3.54h2.62v14.82h-2.62v-7.77h-2.48v-2.5ZM174.11,18.65h-2.62V3.26h2.62v15.39Z"/>
        <path id="_패스_6" data-name="패스 6" class="cls-3" d="M192.23,23.77h-9.36c-.89.02-1.78-.05-2.66-.21-.59-.1-1.14-.37-1.58-.77-.41-.42-.67-.96-.77-1.54-.15-.84-.22-1.69-.2-2.55V3.83h14v2.45h-11.38v6.12h10.84v2.45h-10.84v3.92c0,.42.02.84.09,1.25.04.29.16.56.34.78.2.22.47.36.77.41.45.09.91.12,1.37.11h9.39v2.44ZM192.77,11.79h3.61V3.26h2.61v21.08h-2.62v-10.04h-3.61v-2.5Z"/>
        <path id="_패스_7" data-name="패스 7" class="cls-3" d="M56.93,30.83h1.97l2.67,9.42h-1.54l-.62-2.3h-3.04l-.62,2.3h-1.48l2.66-9.42ZM59.01,36.47l-1.13-4.18-1.13,4.18h2.26Z"/>
        <path id="_패스_8" data-name="패스 8" class="cls-3" d="M62.34,32.99h1.35v1.03c.43-.73,1.23-1.15,2.08-1.1,1.24,0,1.74.56,1.74,1.82v5.51h-1.34v-5.4c0-.4-.13-.55-.62-.55-.67-.03-1.32.18-1.86.58v5.37h-1.35v-7.26Z"/>
        <path id="_패스_9" data-name="패스 9" class="cls-3" d="M68.76,30.53h1.44v1.56h-1.44v-1.56ZM68.81,32.99h1.35v7.26h-1.35v-7.26Z"/>
        <path id="_패스_10" data-name="패스 10" class="cls-3" d="M71.51,32.99h1.35v1.02c.4-.7,1.15-1.12,1.96-1.1.95,0,1.46.36,1.61,1.17.41-.73,1.19-1.17,2.02-1.17,1.18,0,1.68.56,1.68,1.82v5.53h-1.35v-5.41c0-.4-.13-.55-.54-.55-.63-.01-1.25.19-1.75.59v5.37h-1.34v-5.41c0-.4-.13-.55-.55-.55-.63-.01-1.24.19-1.74.58v5.38h-1.35v-7.26Z"/>
        <path id="_패스_11" data-name="패스 11" class="cls-3" d="M81.15,38.19c0-1.51.59-2.02,1.63-2.16.53-.08,1.33-.16,2.2-.22v-1.03c0-.36-.13-.51-.45-.51h-1.4c-.32,0-.45.15-.45.51v.36h-1.33v-.38c0-1.21.49-1.78,1.55-1.78h1.87c1.06,0,1.55.56,1.55,1.78v5.49h-1.35v-1.09c-.4.76-1.22,1.21-2.08,1.14-1.26,0-1.75-.6-1.75-2.11M83.11,38.97c.68,0,1.34-.23,1.87-.66v-1.49l-1.95.35c-.4.07-.55.19-.55.9s.13.9.63.9"/>
        <rect id="_사각형_6" data-name="사각형 6" class="cls-3" x="87.61" y="30.43" width="1.35" height="9.82"/>
        <path id="_패스_12" data-name="패스 12" class="cls-3" d="M92.8,38.37v-5.65c0-1.28.53-1.88,1.64-1.88h2.63c1.12,0,1.64.6,1.64,1.88v1.36h-1.41v-1.26c0-.36-.12-.5-.43-.5h-2.22c-.33,0-.45.13-.45.5v5.46c0,.36.12.5.45.5h2.22c.32,0,.43-.13.43-.5v-1.26h1.41v1.36c0,1.26-.53,1.88-1.64,1.88h-2.63c-1.12,0-1.64-.62-1.64-1.88"/>
        <path id="_패스_13" data-name="패스 13" class="cls-3" d="M99.63,38.19c0-1.51.59-2.02,1.63-2.16.53-.08,1.33-.16,2.2-.22v-1.03c0-.36-.13-.51-.45-.51h-1.4c-.32,0-.45.15-.45.51v.36h-1.33v-.38c0-1.21.49-1.78,1.55-1.78h1.87c1.06,0,1.55.56,1.55,1.78v5.49h-1.35v-1.09c-.4.76-1.22,1.21-2.08,1.14-1.26,0-1.75-.6-1.75-2.11M101.59,38.97c.68,0,1.34-.23,1.87-.66v-1.49l-1.95.35c-.4.07-.55.19-.55.9s.13.9.63.9"/>
        <path id="_패스_14" data-name="패스 14" class="cls-3" d="M106.08,32.99h1.35v1.1c.38-.68,1.1-1.1,1.88-1.1h.48v1.47h-.68c-.61,0-1.19.2-1.68.56v5.23h-1.35v-7.26Z"/>
        <path id="_패스_15" data-name="패스 15" class="cls-3" d="M110.29,38.47v-3.71c0-1.21.49-1.77,1.55-1.77h2.02c1.06,0,1.55.56,1.55,1.77v2.27h-3.77v1.43c0,.38.12.51.45.51h1.53c.33,0,.45-.13.45-.51v-.55h1.35v.56c0,1.21-.49,1.78-1.55,1.78h-2.02c-1.06,0-1.55-.56-1.55-1.78M114.06,35.95v-1.17c0-.38-.12-.51-.45-.51h-1.53c-.33,0-.45.13-.45.51v1.17h2.42Z"/>
        <path id="_패스_16" data-name="패스 16" class="cls-3" d="M119.07,38.37v-5.65c0-1.28.53-1.88,1.64-1.88h2.63c1.12,0,1.64.6,1.64,1.88v1.36h-1.41v-1.26c0-.36-.12-.5-.43-.5h-2.22c-.33,0-.45.13-.45.5v5.46c0,.36.12.5.45.5h2.22c.32,0,.43-.13.43-.5v-1.26h1.41v1.36c0,1.26-.53,1.88-1.64,1.88h-2.63c-1.12,0-1.64-.62-1.64-1.88"/>
        <path id="_패스_17" data-name="패스 17" class="cls-3" d="M126.02,38.47v-3.71c0-1.21.49-1.77,1.55-1.77h2.02c1.06,0,1.55.56,1.55,1.77v2.27h-3.77v1.43c0,.38.12.51.45.51h1.53c.33,0,.45-.13.45-.51v-.55h1.35v.56c0,1.21-.49,1.78-1.55,1.78h-2.02c-1.06,0-1.55-.56-1.55-1.78M129.79,35.95v-1.17c0-.38-.12-.51-.45-.51h-1.52c-.33,0-.45.13-.45.51v1.17h2.41Z"/>
        <path id="_패스_18" data-name="패스 18" class="cls-3" d="M132.3,32.99h1.35v1.03c.43-.73,1.23-1.15,2.08-1.1,1.24,0,1.74.56,1.74,1.82v5.51h-1.34v-5.4c0-.4-.13-.55-.62-.55-.67-.03-1.32.18-1.86.58v5.37h-1.35v-7.26Z"/>
        <path id="_패스_19" data-name="패스 19" class="cls-3" d="M139.05,38.47v-4.21h-.94v-1.28h.95v-1.75h1.32v1.75h1.46v1.28h-1.44v4.17c0,.38.13.51.45.51h1v1.3h-1.23c-1.06,0-1.55-.56-1.55-1.78"/>
        <path id="_패스_20" data-name="패스 20" class="cls-3" d="M142.46,38.47v-3.71c0-1.21.49-1.77,1.55-1.77h2.02c1.06,0,1.55.56,1.55,1.77v2.27h-3.77v1.43c0,.38.12.51.45.51h1.53c.33,0,.45-.13.45-.51v-.55h1.35v.56c0,1.21-.49,1.78-1.55,1.78h-2.02c-1.06,0-1.55-.56-1.55-1.78M146.23,35.95v-1.17c0-.38-.12-.51-.45-.51h-1.53c-.33,0-.45.13-.45.51v1.17h2.42Z"/>
        <path id="_패스_21" data-name="패스 21" class="cls-3" d="M148.73,32.99h1.35v1.1c.38-.68,1.1-1.1,1.88-1.1h.48v1.47h-.68c-.61,0-1.19.2-1.68.56v5.23h-1.35v-7.26Z"/>
        <path id="_패스_22" data-name="패스 22" class="cls-3" d="M155.64,38.47v-3.71c0-1.21.49-1.78,1.55-1.78h2.09c1.06,0,1.55.56,1.55,1.78v3.71c0,1.21-.49,1.78-1.55,1.78h-2.09c-1.06,0-1.55-.56-1.55-1.78M157.44,38.89h1.61c.32,0,.45-.13.45-.51v-3.52c0-.38-.13-.51-.45-.51h-1.61c-.33,0-.45.13-.45.51v3.52c0,.38.12.51.45.51"/>
        <path id="_패스_23" data-name="패스 23" class="cls-3" d="M162.42,34.29h-.98v-1.3h.99v-.78c0-1.21.48-1.78,1.55-1.78h1.22v1.2h-.99c-.32,0-.45.15-.45.51v.85h1.55v1.3h-1.55v5.96h-1.35v-5.96Z"/>
        <path id="_패스_24" data-name="패스 24" class="cls-3" d="M168.8,30.83h1.39v4.79l3.36-4.79h1.68l-2.7,3.74,2.87,5.67h-1.6l-2.21-4.37-1.4,1.92v2.45h-1.38v-9.42Z"/>
        <path id="_패스_25" data-name="패스 25" class="cls-3" d="M175.69,38.47v-3.71c0-1.21.49-1.78,1.55-1.78h2.09c1.06,0,1.55.56,1.55,1.78v3.71c0,1.21-.49,1.78-1.55,1.78h-2.09c-1.06,0-1.55-.56-1.55-1.78M177.49,38.89h1.61c.32,0,.45-.13.45-.51v-3.52c0-.38-.13-.51-.45-.51h-1.61c-.33,0-.45.13-.45.51v3.52c0,.38.12.51.45.51"/>
        <path id="_패스_26" data-name="패스 26" class="cls-3" d="M182.08,32.99h1.35v1.1c.38-.68,1.1-1.1,1.88-1.1h.48v1.47h-.68c-.61,0-1.19.2-1.68.56v5.23h-1.35v-7.26Z"/>
        <path id="_패스_27" data-name="패스 27" class="cls-3" d="M186.3,38.47v-3.71c0-1.21.49-1.77,1.55-1.77h2.02c1.06,0,1.55.56,1.55,1.77v2.27h-3.76v1.43c0,.38.12.51.45.51h1.53c.33,0,.45-.13.45-.51v-.55h1.35v.56c0,1.21-.49,1.78-1.55,1.78h-2.02c-1.06,0-1.55-.56-1.55-1.78M190.07,35.95v-1.17c0-.38-.12-.51-.45-.51h-1.53c-.33,0-.45.13-.45.51v1.17h2.42Z"/>
        <path id="_패스_28" data-name="패스 28" class="cls-3" d="M192.31,38.19c0-1.51.59-2.02,1.63-2.16.53-.08,1.33-.16,2.2-.22v-1.03c0-.36-.13-.51-.45-.51h-1.4c-.32,0-.45.15-.45.51v.36h-1.33v-.38c0-1.21.49-1.78,1.55-1.78h1.87c1.06,0,1.55.56,1.55,1.78v5.49h-1.35v-1.09c-.4.76-1.22,1.21-2.08,1.14-1.26,0-1.75-.6-1.75-2.11M194.27,38.97c.68,0,1.34-.23,1.87-.66v-1.49l-1.95.35c-.4.07-.55.19-.55.9s.13.9.63.9"/>
        <path id="_패스_29" data-name="패스 29" class="cls-3" d="M20.07.05c23.6-1.41,33.33,27.62,10.76,38.29l.91-2.1c5.43-3.04,9.77-8.5,10.21-14.87C43.07,4.92,22.61-4.31,9.08,5.67-2.18,13.97-.22,29.8,11.85,36.13l1.03,2.14C2.51,34.21-3.07,22.43,1.76,12.04,4.96,5.14,12.59.5,20.07.05"/>
        <path id="_패스_30" data-name="패스 30" class="cls-3" d="M14.38,23.94c7.81,5.56,6.61,12.51,7.28,21.12-.34.27-6.06-5.28-6.53-5.82-4.69-5.42-3.07-9.23-.75-15.31"/>
        <path id="_패스_31" data-name="패스 31" class="cls-3" d="M29.33,23.94c1.7,4.65,3.61,8.84.67,13.49-1.3,2.05-5.79,6.22-7.95,7.71.6-8.42-.48-15.83,7.28-21.2"/>
        <path id="_패스_32" data-name="패스 32" class="cls-3" d="M10.11,7.09c.85-.1,6.47.44,6.61,1.07l-5.5,6.37c-.99-.79-1.96-7.15-1.11-7.44"/>
        <path id="_패스_33" data-name="패스 33" class="cls-3" d="M32.34,7.09c1.51-.05,1.68-.3,1.54,2.26-.11,1.74-.55,3.45-1.3,5.02l-5.66-6.21c.11-.45,4.77-1.05,5.42-1.07"/>
        <path id="_패스_34" data-name="패스 34" class="cls-3" d="M25.93,8.44h-8.15c-2.05,2.2-4,4.49-5.97,6.76,2.41,7.11,2.75,9.17,10.17,12.15,7.55-3.59,7.25-4.61,9.93-12.15-1.86-2.36-3.91-4.58-5.97-6.76M21.65,26.55c-1.56-.86-5-2.67-6.05-3.92-3.03-3.58-.82-9.56,3.4-7.83.01-.46-.34-1.53-.83-1.62-1.07-.21-3.02,1.88-1.62-.28.59-.92,1.71-1.54,2.45-.4.69,1.06.69,5.3.55,6.72.08.38,1.51-1.03,2.49-.91.36.04,1.52.86,1.98,1.03.16-1.33-.41-7.42,1.66-7.52.91-.04,1.81,1.35,1.94,2.18-1.39-1.1-2.7-1.36-2.93.79,4.39-1.56,5.79,3.72,3.95,6.96-1.17,2.07-6.54,4.83-7,4.79"/>
        <path id="_패스_35" data-name="패스 35" class="cls-3" d="M23.16,19.91c-.13-.03-2.47-.03-2.61,0-1.37.26,1.01,2.2,1.19,2.22.47.04,2.71-1.95,1.42-2.22"/>
      </g>
    </g>
  </g>
</svg>