<?xml version="1.0" encoding="UTF-8"?>
<svg id="_레이어_2" data-name="레이어 2" xmlns="http://www.w3.org/2000/svg" xmlns:xlink="http://www.w3.org/1999/xlink" viewBox="0 0 209.43 210.25">
  <defs>
    <style>
      .cls-1 {
        clip-path: url(#clippath);
      }

      .cls-2 {
        fill: none;
      }

      .cls-2, .cls-3 {
        stroke-width: 0px;
      }

      .cls-4 {
        isolation: isolate;
      }

      .cls-3 {
        fill: #191210;
      }
    </style>
    <clipPath id="clippath">
      <rect class="cls-2" width="209.43" height="210.25"/>
    </clipPath>
  </defs>
  <g id="_레이어_1-2" data-name="레이어 1">
    <g class="cls-1">
      <g id="_그룹_21" data-name="그룹 21">
        <g id="A" class="cls-4">
          <g class="cls-4">
            <path class="cls-3" d="M80.16,165.23l-8.3,6.97-.17-.09.78-10.79.6.3-.21,3.07,4.35,2.21,2.36-1.98.6.3ZM76.77,167.26l-3.93-2-.47,5.75,4.4-3.75Z"/>
          </g>
        </g>
        <g id="N" class="cls-4">
          <g class="cls-4">
            <path class="cls-3" d="M56.97,162.26l6.06-7.75.47.37-2.94,3.76,1.67,6.39,5.41-6.92.47.37-6.08,7.78-.14.02-1.81-7.03-2.64,3.38-.47-.37Z"/>
          </g>
        </g>
        <g id="I" class="cls-4">
          <g class="cls-4">
            <path class="cls-3" d="M51.6,157.01l-.34-.36,5.6-5.32.34.36-5.6,5.32Z"/>
          </g>
        </g>
        <g id="M" class="cls-4">
          <g class="cls-4">
            <path class="cls-3" d="M54.15,145.38l-8.16,5.61-.14-.08,1.38-5.44-5.55-.64-.02-.15,8.16-5.61.36.52-6.95,4.77,4.68.56.1.14-1.16,4.57,6.95-4.77.36.52Z"/>
          </g>
        </g>
        <g id="A-2" class="cls-4">
          <g class="cls-4">
            <path class="cls-3" d="M47.16,134.49l-10.83-.05-.08-.18,7.57-7.71.26.62-2.14,2.2,1.88,4.49,3.07.02.26.62ZM43.26,133.85l-1.71-4.06-4.07,4.08h5.78Z"/>
          </g>
        </g>
        <g id="I-2" class="cls-4">
          <g class="cls-4">
            <path class="cls-3" d="M33.04,124.18l-.12-.48,7.48-1.92.12.48-7.48,1.92Z"/>
          </g>
        </g>
        <g id="L" class="cls-4">
          <g class="cls-4">
            <path class="cls-3" d="M40.43,110.57l.58,4.64-9.75,1.21-.08-.62,9.23-1.14-.51-4.01.51-.06Z"/>
          </g>
        </g>
        <g id="C" class="cls-4">
          <g class="cls-4">
            <path class="cls-3" d="M39.49,91.14c.49.82.97,1.84.67,3.71-.43,2.68-2.85,4.26-5.4,3.85-2.8-.45-4.36-2.86-3.96-5.41.26-1.63,1.08-2.51,1.78-3.14l.36.39c-.85.68-1.47,1.7-1.65,2.83-.35,2.21,1.17,4.31,3.57,4.69,2.32.37,4.47-1.14,4.83-3.35.18-1.13-.09-2.4-.64-3.3l.45-.27Z"/>
          </g>
        </g>
        <g id="A-3" class="cls-4">
          <g class="cls-4">
            <path class="cls-3" d="M42.78,86.19l-7.78-7.55.07-.18,10.81-.32-.24.63-3.07.11-1.75,4.55,2.21,2.14-.24.63ZM40.41,83.02l1.59-4.12-5.77.12,4.18,4Z"/>
          </g>
        </g>
        <g id="R" class="cls-4">
          <g class="cls-4">
            <path class="cls-3" d="M46.63,68.62l4.9-.39-.43.7-4.61.34c-.16.56-.49,1.16-1,1.8l3.1,1.91-.33.54-8.33-5.15c1.06-2.99,3.24-4.02,5.2-2.81.85.52,1.67,1.59,1.5,3.05ZM44.98,70.76c1.5-1.77,1.37-3.68-.19-4.65-1.42-.88-3.23-.29-4.13,1.97l4.33,2.67Z"/>
          </g>
        </g>
        <g id="E" class="cls-4">
          <g class="cls-4">
            <path class="cls-3" d="M56.43,59.91l.33.29-2.96,3.32-6.28-5.6,2.82-3.16.33.29-2.46,2.76,2.14,1.91,1.98-2.22.33.3-1.98,2.22,3.15,2.81,2.6-2.92Z"/>
          </g>
        </g>
        <g id="C-2" class="cls-4">
          <g class="cls-4">
            <path class="cls-3" d="M72.6,46.5c-.3.9-.77,1.93-2.39,2.92-2.32,1.42-5.09.59-6.44-1.62-1.48-2.42-.66-5.17,1.55-6.52,1.41-.86,2.62-.8,3.54-.68l-.06.52c-1.07-.2-2.25-.02-3.22.58-1.91,1.17-2.52,3.69-1.25,5.76,1.23,2.01,3.77,2.66,5.68,1.5.98-.6,1.77-1.62,2.09-2.63l.5.17Z"/>
          </g>
        </g>
        <g id="E-2" class="cls-4">
          <g class="cls-4">
            <path class="cls-3" d="M83.16,43.3l.15.42-4.17,1.56-2.94-7.89,3.97-1.48.15.42-3.46,1.29,1,2.69,2.79-1.04.16.42-2.79,1.04,1.47,3.96,3.67-1.37Z"/>
          </g>
        </g>
        <g id="N-2" class="cls-4">
          <g class="cls-4">
            <path class="cls-3" d="M93.9,31.77l1.6,8.99-.55.1-.78-4.37-5.45-2.81,1.43,8.03-.55.1-1.6-9.02.07-.11,5.98,3.12-.7-3.92.55-.1Z"/>
          </g>
        </g>
        <g id="T" class="cls-4">
          <g class="cls-4">
            <path class="cls-3" d="M106.94,30.81h-2.47s0,8.65,0,8.65h-.58v-8.65s-2.46,0-2.46,0v-.48s5.51,0,5.51,0v.48Z"/>
          </g>
        </g>
        <g id="E-3" class="cls-4">
          <g class="cls-4">
            <path class="cls-3" d="M116.99,40.14l-.07.44-4.39-.72,1.35-8.31,4.18.68-.07.44-3.64-.59-.46,2.83,2.93.48-.07.44-2.94-.48-.68,4.17,3.86.63Z"/>
          </g>
        </g>
        <g id="R-2" class="cls-4">
          <g class="cls-4">
            <path class="cls-3" d="M127.67,40.45l1.45,4.7-.78-.27-1.34-4.42c-.58-.04-1.24-.22-1.98-.58l-1.19,3.44-.6-.21,3.21-9.25c3.15.38,4.63,2.29,3.88,4.46-.33.94-1.19,1.97-2.65,2.13ZM125.22,39.31c2.06,1.08,3.89.53,4.49-1.2.55-1.57-.43-3.22-2.83-3.61l-1.67,4.8Z"/>
          </g>
        </g>
        <g id="O" class="cls-4">
          <g class="cls-4">
            <path class="cls-3" d="M148.84,44.46c2.14,1.57,2.57,4.43.96,6.62-1.6,2.18-4.45,2.6-6.59,1.03-2.14-1.58-2.56-4.41-.96-6.58,1.61-2.19,4.45-2.64,6.59-1.06ZM143.5,51.7c1.81,1.33,4.33.96,5.78-1.01,1.45-1.97,1.07-4.51-.74-5.84-1.82-1.34-4.33-.93-5.78,1.04-1.45,1.97-1.08,4.47.74,5.81Z"/>
          </g>
        </g>
        <g id="F" class="cls-4">
          <g class="cls-4">
            <path class="cls-3" d="M151.99,59.33l6.75-6.14,3.09,3.4-.36.32-2.69-2.96-2.3,2.09,2.17,2.38-.36.32-2.17-2.39-3.74,3.4-.39-.43Z"/>
          </g>
        </g>
        <g id="K" class="cls-4">
          <g class="cls-4">
            <path class="cls-3" d="M170.3,69.19l.29.58-4.07,2.06,6.04,1.84.35.7-6.25-1.86-2.33,6.67-.4-.79,2.21-6.38-4.32,2.18-.29-.58,8.77-4.43Z"/>
          </g>
        </g>
        <g id="O-2" class="cls-4">
          <g class="cls-4">
            <path class="cls-3" d="M177.21,84.58c.71,2.55-.7,5.07-3.32,5.8-2.6.73-5.11-.69-5.82-3.25-.72-2.57.69-5.05,3.3-5.78,2.62-.73,5.13.66,5.84,3.23ZM168.55,87c.6,2.17,2.82,3.42,5.17,2.77,2.35-.66,3.62-2.89,3.02-5.05-.61-2.18-2.84-3.4-5.19-2.75-2.35.66-3.6,2.86-2.99,5.03Z"/>
          </g>
        </g>
        <g id="R-3" class="cls-4">
          <g class="cls-4">
            <path class="cls-3" d="M173.79,101.43l-3.75,3.17-.06-.82,3.54-2.96c-.19-.55-.28-1.23-.24-2.05l-3.63.24-.04-.63,9.77-.66c.88,3.04-.29,5.16-2.58,5.31-.99.07-2.28-.32-3-1.61ZM173.88,98.73c-.19,2.32,1.03,3.79,2.87,3.67,1.66-.11,2.79-1.65,2.21-4.01l-5.07.34Z"/>
          </g>
        </g>
        <g id="E-4" class="cls-4">
          <g class="cls-4">
            <path class="cls-3" d="M170.9,114.25l-.44-.05.46-4.43,8.38.88-.44,4.22-.44-.05.38-3.68-2.85-.3-.31,2.96-.44-.05.31-2.96-4.2-.44-.41,3.89Z"/>
          </g>
        </g>
        <g id="A-4" class="cls-4">
          <g class="cls-4">
            <path class="cls-3" d="M168.68,119.56l8.36,6.9-.06.19-10.75,1.18.19-.64,3.05-.35,1.38-4.67-2.37-1.96.19-.64ZM171.3,122.53l-1.25,4.23,5.74-.58-4.48-3.65Z"/>
          </g>
        </g>
        <g id="_패스_3164" data-name="패스 3164">
          <path class="cls-3" d="M107.51,173.41c-11.06,0-19.91-1.41-20.07-1.43l.08-.49c.29.05,29.48,4.68,48.14-3.01,22.2-9.15,29.88-30.04,29.96-30.25l.47.17c-.08.21-7.83,21.31-30.24,30.55-8.51,3.51-19.19,4.47-28.34,4.47Z"/>
        </g>
      </g>
    </g>
    <path class="cls-2" d="M190.04,190.45H19.39V19.8h170.65v170.65ZM20.39,189.45h168.65V20.8H20.39v168.65Z"/>
  </g>
</svg>