<svg width="48" height="40" viewBox="0 0 48 40" fill="none" xmlns="http://www.w3.org/2000/svg">
<path d="M19.6267 0C8.78862 0 0 8.95579 0 20C0 31.0442 8.78862 40 19.6267 40C30.4648 40 39.2534 31.0442 39.2534 20C39.2534 8.95579 30.4648 0 19.6267 0ZM19.7882 38.4384C9.70256 38.4384 1.52785 30.1082 1.52785 19.8307C1.52785 16.2512 2.52027 12.9022 4.24199 10.0659C5.09131 13.5983 10.8473 16.8156 13.9353 18.5419C15.1908 19.2427 16.0032 19.699 15.874 19.8307C15.6617 20.047 15.4493 20.2493 15.2416 20.4516C14.1569 21.5005 13.1922 22.4412 13.266 23.8147C13.3583 25.4986 14.877 26.0019 16.4325 26.5193C17.9373 27.0179 19.479 27.5259 19.7882 29.1298C20.0006 30.2399 19.5944 31.7545 19.2159 33.1703C18.6574 35.2493 18.1588 37.1072 19.7882 37.1072C23.7025 35.7761 29.6939 28.6406 30.2201 23.8194C30.5802 20.5174 25.0042 18.5042 21.0899 17.1731C19.8436 16.7498 19.1189 17.3895 18.505 17.9304C18.0573 18.3255 17.6649 18.6689 17.1757 18.5042C16.0125 18.1091 10.6534 13.1891 13.2614 11.8579C15.297 10.8184 15.7447 11.4017 16.4648 12.3424C16.6679 12.6058 16.8895 12.8975 17.1757 13.1891C18.7635 13.9981 18.902 12.8363 19.0589 11.5052C19.1605 10.6491 19.2713 9.72248 19.7836 9.20038C20.9145 8.04798 23.084 7.09784 25.0734 6.22295C26.9336 5.40922 28.6369 4.66134 29.1908 3.88053C34.4944 7.13547 38.0394 13.0621 38.0394 19.8307C38.0394 30.1082 29.8647 38.4384 19.779 38.4384H19.7882Z" fill="#1D1D1D"/>
<path d="M26.7859 15.6162C26.1535 15.08 25.5489 14.238 25.7889 13.2079C26.0289 12.1825 26.9382 11.7027 27.7414 11.5099C28.5676 11.3123 29.5093 11.3452 30.2386 11.524L34.9652 12.6623L39.8442 6.71214C40.3243 6.12888 41.0859 5.87018 41.8152 6.04421L43.5877 6.47225C43.7769 6.51928 43.9339 6.64628 44.0216 6.82032C44.1093 6.99436 44.1185 7.20132 44.0401 7.38476L41.1967 14.2897L43.9708 15.4751L46.0572 14.1627C46.2834 14.0216 46.5742 14.031 46.7865 14.191C47.0034 14.3509 47.105 14.6237 47.0404 14.8871L45.5264 21.4158C45.4664 21.6792 45.254 21.8815 44.9909 21.9238C44.7278 21.9661 44.4647 21.8438 44.3262 21.6134L43.0384 19.4873L40.0381 19.2803L39.5442 26.7498C39.5303 26.9473 39.4334 27.1261 39.2765 27.2436C39.1195 27.3612 38.921 27.4036 38.7364 27.3565L36.9639 26.9285C36.2346 26.7545 35.6669 26.1759 35.4961 25.4327L33.7513 17.8833L29.0246 16.7451C28.2953 16.571 27.4368 16.1712 26.7859 15.6162Z" fill="#1D1D1D"/>
<path d="M27.6306 14.5861C28.1061 14.9906 28.7754 15.3057 29.3293 15.4374L34.4529 16.6698C34.6975 16.7262 34.8868 16.9191 34.9422 17.1684L36.7793 25.1176C36.8347 25.3669 37.0239 25.5597 37.2686 25.6162L38.2841 25.8608L38.7687 18.5089C38.7918 18.1373 39.1057 17.8598 39.4703 17.8833L43.4631 18.1562C43.6754 18.1703 43.8693 18.2879 43.98 18.4713L44.6124 19.5155L45.3971 16.1383L44.3724 16.7827C44.1924 16.8956 43.9662 16.9144 43.7723 16.8297L40.0796 15.2493C39.7427 15.1082 39.5857 14.7131 39.7288 14.3697L42.526 7.57761L41.5106 7.33302C41.2659 7.27658 41.012 7.36124 40.8551 7.55409L35.7176 13.8241C35.5561 14.0169 35.3022 14.1063 35.0622 14.0452L29.9386 12.8128C29.3847 12.6811 28.6507 12.6576 28.046 12.7987C27.4137 12.9492 27.1367 13.222 27.0721 13.4995C27.0075 13.777 27.1367 14.1439 27.6352 14.5673L27.6306 14.5861Z" fill="white"/>
</svg>
