<svg width="14" height="12" viewBox="0 0 14 12" fill="none" xmlns="http://www.w3.org/2000/svg">
<path fill-rule="evenodd" clip-rule="evenodd" d="M0.125 10.625C0.125 10.2798 0.404822 10 0.75 10H13.25C13.5952 10 13.875 10.2798 13.875 10.625C13.875 10.9702 13.5952 11.25 13.25 11.25H0.75C0.404822 11.25 0.125 10.9702 0.125 10.625Z" fill="#1D1D1D"/>
<path fill-rule="evenodd" clip-rule="evenodd" d="M0.125 5.625C0.125 5.27982 0.404822 5 0.75 5H13.25C13.5952 5 13.875 5.27982 13.875 5.625C13.875 5.97018 13.5952 6.25 13.25 6.25H0.75C0.404822 6.25 0.125 5.97018 0.125 5.625Z" fill="#1D1D1D"/>
<path fill-rule="evenodd" clip-rule="evenodd" d="M0.125 0.625C0.125 0.279822 0.404822 0 0.75 0H13.25C13.5952 0 13.875 0.279822 13.875 0.625C13.875 0.970178 13.5952 1.25 13.25 1.25H0.75C0.404822 1.25 0.125 0.970178 0.125 0.625Z" fill="#1D1D1D"/>
</svg>
