<svg width="14" height="12" viewBox="0 0 14 12" fill="none" xmlns="http://www.w3.org/2000/svg">
<path fill-rule="evenodd" clip-rule="evenodd" d="M0.125 11.375C0.125 11.0298 0.404822 10.75 0.75 10.75H13.25C13.5952 10.75 13.875 11.0298 13.875 11.375C13.875 11.7202 13.5952 12 13.25 12H0.75C0.404822 12 0.125 11.7202 0.125 11.375Z" fill="white"/>
<path fill-rule="evenodd" clip-rule="evenodd" d="M0.125 6.375C0.125 6.02982 0.404822 5.75 0.75 5.75H13.25C13.5952 5.75 13.875 6.02982 13.875 6.375C13.875 6.72018 13.5952 7 13.25 7H0.75C0.404822 7 0.125 6.72018 0.125 6.375Z" fill="white"/>
<path fill-rule="evenodd" clip-rule="evenodd" d="M0.125 1.375C0.125 1.02982 0.404822 0.75 0.75 0.75H13.25C13.5952 0.75 13.875 1.02982 13.875 1.375C13.875 1.72018 13.5952 2 13.25 2H0.75C0.404822 2 0.125 1.72018 0.125 1.375Z" fill="white"/>
</svg>
