<svg width="46" height="40" viewBox="0 0 46 40" fill="none" xmlns="http://www.w3.org/2000/svg">
<path d="M42.9031 31.448V13.5431L44.8767 12.7708C45.4201 12.5706 45.7633 12.0558 45.7633 11.4837C45.7633 10.9117 45.4487 10.3969 44.9339 10.1394L23.4823 0.128709C23.1105 -0.0429031 22.6528 -0.0429031 22.281 0.128709L0.82946 10.1394C0.314623 10.3683 0 10.8831 0 11.4551C0 12.0272 0.371827 12.542 0.886664 12.7422L22.3382 21.3228C22.6814 21.4659 23.0533 21.4659 23.3965 21.3228L40.0143 14.6586V31.4194C38.4412 31.4194 37.1541 32.7065 37.1541 34.2796V40H45.7347V34.2796C45.7347 32.7065 44.4476 31.4194 42.8745 31.4194L42.9031 31.448ZM23.0533 20.2646C23.0533 20.2646 22.8245 20.3218 22.71 20.2646L2.05935 11.7698C1.68752 11.6267 1.68752 11.1119 2.05935 10.9403L22.6814 1.07258C22.6814 1.07258 22.9675 1.01537 23.0819 1.07258L43.7326 10.9689C44.1044 11.1405 44.0758 11.6553 43.7326 11.7984L23.0819 20.2646H23.0533Z" fill="#010101"/>
<path d="M35.6954 21.0368C35.581 20.665 35.3236 20.3504 34.9517 20.1502C34.6085 19.9785 34.1795 19.9499 33.8077 20.093L22.8817 24.1831L11.9557 20.093C11.5838 19.9499 11.1834 19.9785 10.8116 20.1502C10.4684 20.3218 10.1823 20.6364 10.0679 21.0368L8.63783 25.8992C8.43761 26.6142 8.78084 27.3579 9.46729 27.6439L22.3382 32.7923C22.6814 32.9353 23.0533 32.9353 23.3965 32.7923L36.2674 27.6439C36.9539 27.3579 37.3257 26.6142 37.0969 25.8992L35.6668 21.0368H35.6954Z" fill="#010101"/>
</svg>
