<svg width="20" height="20" viewBox="0 0 20 20" fill="none" xmlns="http://www.w3.org/2000/svg">
<mask id="mask0_6_245" style="mask-type:alpha" maskUnits="userSpaceOnUse" x="0" y="0" width="20" height="20">
<rect width="20" height="20" fill="#D9D9D9"/>
</mask>
<g mask="url(#mask0_6_245)">
<path d="M9.99996 17.8333C8.91235 17.8333 7.89152 17.629 6.93746 17.2203C5.9834 16.8117 5.15408 16.255 4.44948 15.5504C3.74488 14.8458 3.18826 14.0165 2.77961 13.0625C2.37095 12.1084 2.16663 11.0876 2.16663 9.99996C2.16663 8.92303 2.37095 7.90487 2.77961 6.94548C3.18826 5.98608 3.74488 5.15408 4.44948 4.44948C5.15408 3.74488 5.9834 3.18826 6.93746 2.7796C7.89152 2.37095 8.91235 2.16663 9.99996 2.16663C11.0769 2.16663 12.095 2.37095 13.0544 2.7796C14.0138 3.18826 14.8458 3.74488 15.5504 4.44948C16.255 5.15408 16.8117 5.98608 17.2203 6.94548C17.629 7.90487 17.8333 8.92303 17.8333 9.99996C17.8333 11.0876 17.629 12.1084 17.2203 13.0625C16.8117 14.0165 16.255 14.8458 15.5504 15.5504C14.8458 16.255 14.0138 16.8117 13.0544 17.2203C12.095 17.629 11.0769 17.8333 9.99996 17.8333ZM9.99996 16.5897C10.3365 16.2393 10.6426 15.7056 10.9182 14.9888C11.1939 14.2719 11.4102 13.4829 11.5673 12.6218H8.43265C8.61106 13.5256 8.83275 14.336 9.09771 15.0529C9.36267 15.7697 9.66342 16.282 9.99996 16.5897ZM9.00156 16.548C8.68212 16.173 8.38965 15.6308 8.12415 14.9214C7.85866 14.212 7.66128 13.4455 7.532 12.6218H3.899C4.34879 13.7136 5.04324 14.6087 5.98233 15.3069C6.92143 16.005 7.92784 16.4188 9.00156 16.548ZM10.9984 16.548C12.0721 16.4188 13.0785 16.005 14.0176 15.3069C14.9567 14.6087 15.6511 13.7136 16.1009 12.6218H12.4679C12.2852 13.4562 12.0611 14.2281 11.7956 14.9375C11.5301 15.6469 11.2644 16.1837 10.9984 16.548ZM3.62175 11.7468H7.46311C7.42784 11.4465 7.40407 11.1413 7.39179 10.8309C7.3795 10.5205 7.37336 10.2297 7.37336 9.95829C7.37336 9.68693 7.3795 9.40301 7.39179 9.10652C7.40407 8.81005 7.42784 8.5256 7.46311 8.25317H3.62175C3.53095 8.49996 3.46711 8.7796 3.43025 9.0921C3.39339 9.4046 3.37496 9.70722 3.37496 9.99996C3.37496 10.2927 3.39339 10.5953 3.43025 10.9078C3.46711 11.2203 3.53095 11.5 3.62175 11.7468ZM8.37977 11.7468H11.6201C11.6693 11.4327 11.7 11.1327 11.7123 10.8469C11.7246 10.5611 11.7307 10.2788 11.7307 9.99996C11.7307 9.72111 11.7246 9.43532 11.7123 9.14258C11.7 8.84985 11.6693 8.55338 11.6201 8.25317H8.37977C8.33062 8.55338 8.2999 8.84985 8.28763 9.14258C8.27533 9.43532 8.26919 9.72111 8.26919 9.99996C8.26919 10.2788 8.27533 10.5646 8.28763 10.8573C8.2999 11.1501 8.33062 11.4465 8.37977 11.7468ZM12.5368 11.7468H16.3782C16.469 11.5 16.5328 11.2203 16.5697 10.9078C16.6065 10.5953 16.625 10.2927 16.625 9.99996C16.625 9.70722 16.6065 9.40113 16.5697 9.08169C16.5328 8.76224 16.469 8.48607 16.3782 8.25317H12.5368C12.5721 8.55338 12.5959 8.85866 12.6081 9.16902C12.6204 9.4794 12.6266 9.77026 12.6266 10.0416C12.6266 10.313 12.6204 10.5969 12.6081 10.8934C12.5959 11.1899 12.5721 11.4743 12.5368 11.7468ZM12.4679 7.37817H16.1009C15.6404 6.26492 14.954 5.36988 14.0416 4.69306C13.1292 4.01626 12.1148 3.59719 10.9984 3.43585C11.3178 3.86427 11.6049 4.42517 11.8597 5.11854C12.1145 5.81192 12.3173 6.56513 12.4679 7.37817ZM8.43265 7.37817H11.5673C11.3889 6.485 11.1592 5.6701 10.8782 4.93346C10.5972 4.19681 10.3044 3.65433 9.99996 3.30604C9.69547 3.65433 9.40274 4.19681 9.12175 4.93346C8.84077 5.6701 8.61106 6.485 8.43265 7.37817ZM3.899 7.37817H7.532C7.68264 6.56513 7.88537 5.81192 8.14019 5.11854C8.39499 4.42517 8.68212 3.86427 9.00156 3.43585C7.87442 3.59719 6.85733 4.01893 5.95027 4.70108C5.04323 5.38324 4.35947 6.2756 3.899 7.37817Z" fill="white"/>
</g>
</svg>
