<svg width="20" height="20" viewBox="0 0 20 20" fill="none" xmlns="http://www.w3.org/2000/svg">
<mask id="mask0_34_693" style="mask-type:alpha" maskUnits="userSpaceOnUse" x="0" y="0" width="20" height="20">
<rect width="20" height="20" fill="#D9D9D9"/>
</mask>
<g mask="url(#mask0_34_693)">
<path d="M3.20825 16.4374V14.7531C3.20825 14.4647 3.28888 14.1959 3.45013 13.9469C3.61139 13.6978 3.83793 13.4815 4.12973 13.298C4.87438 12.8653 5.66331 12.5339 6.49652 12.3036C7.32975 12.0734 8.16421 11.9583 8.99992 11.9583C9.33949 11.9583 9.67905 11.981 10.0186 12.0264C10.3582 12.0718 10.6954 12.1329 11.0304 12.2099C11.0528 12.806 11.2029 13.3658 11.4807 13.8893C11.7585 14.4129 12.119 14.8629 12.5624 15.2394V16.4374H3.20825ZM15.681 18.5496L14.6537 17.523V14.3402C14.1181 14.2021 13.6803 13.9087 13.3402 13.4599C13.0001 13.0112 12.83 12.5091 12.83 11.9536C12.83 11.2703 13.0751 10.683 13.5651 10.1918C14.0551 9.70065 14.6467 9.45506 15.3399 9.45506C16.0331 9.45506 16.622 9.69959 17.1065 10.1887C17.591 10.6777 17.8333 11.2682 17.8333 11.9601C17.8333 12.4989 17.6792 12.9767 17.3712 13.3935C17.0631 13.8103 16.6669 14.1118 16.1826 14.298L17.0256 15.141L16.0171 16.1636L17.0256 17.1862L15.681 18.5496ZM9.00102 9.55762C8.27112 9.55762 7.65096 9.30278 7.14054 8.7931C6.63013 8.28342 6.37492 7.66363 6.37492 6.93372C6.37492 6.20382 6.62976 5.58366 7.13944 5.07324C7.64912 4.56283 8.26891 4.30762 8.99881 4.30762C9.72872 4.30762 10.3489 4.56246 10.8593 5.07214C11.3697 5.58182 11.6249 6.20161 11.6249 6.93151C11.6249 7.66142 11.3701 8.28158 10.8604 8.79199C10.3507 9.30241 9.73093 9.55762 9.00102 9.55762ZM15.3353 12.181C15.5102 12.181 15.6685 12.109 15.81 11.9651C15.9516 11.8211 16.0224 11.661 16.0224 11.4849C16.0224 11.3087 15.953 11.1539 15.8144 11.0205C15.6758 10.8871 15.519 10.8204 15.344 10.8204C15.1691 10.8204 15.0082 10.8857 14.8613 11.0161C14.7144 11.1466 14.6409 11.2999 14.6409 11.4761C14.6409 11.6522 14.7129 11.8138 14.8569 11.9607C15.0009 12.1076 15.1603 12.181 15.3353 12.181Z" fill="#1D1D1D"/>
</g>
</svg>
